<?xml version="1.0" encoding="iso-8859-1"?>
<!-- Generator: Adobe Illustrator 19.0.0, SVG Export Plug-In . SVG Version: 6.00 Build 0)  -->
<svg version="1.1" id="Capa_1" xmlns="http://www.w3.org/2000/svg" xmlns:xlink="http://www.w3.org/1999/xlink" x="0px" y="0px"
	 viewBox="0 0 480 480" style="enable-background:new 0 0 480 480;" xml:space="preserve">
<g>
	<g>
		<path fill="#fff" d="M280,256H96H8c-4.416,0-8,3.584-8,8v208c0,4.416,3.584,8,8,8h88h184c4.416,0,8-3.584,8-8V264
			C288,259.584,284.416,256,280,256z M88,464H16V272h72V464z M272,464H104V272h168V464z"/>
	</g>
</g>
<g>
	<g>
		<path fill="#fff" d="M248,368h-88c-4.416,0-8,3.584-8,8v48c0,4.416,3.584,8,8,8h88c4.416,0,8-3.584,8-8v-48C256,371.584,252.416,368,248,368z
			 M240,416h-72v-32h72V416z"/>
	</g>
</g>
<g>
	<g>
		<rect fill="#fff" x="120" y="288" width="64" height="16"/>
	</g>
</g>
<g>
	<g>
		<rect  fill="#fff" x="120" y="320" width="64" height="16"/>
	</g>
</g>
<g>
	<g>
		<path  fill="#fff" d="M472,0H88c-4.416,0-8,3.584-8,8v208c0,4.416,3.584,8,8,8h384c4.416,0,8-3.584,8-8V8C480,3.584,476.416,0,472,0z M464,208
			H96V16h368V208z"/>
	</g>
</g>
<g>
	<g>
		<path  fill="#fff" d="M447.992,72c0-4.416-3.584-8-8-8C426.76,64,416,53.232,416,40c0-4.416-3.584-8-8-8H152c-4.416,0-8,3.584-8,8
			c0,13.232-10.768,24-24,24c-2.12,0-4.16,0.84-5.656,2.344C112.848,67.848,112,69.872,112,72v80c0,4.416,3.584,8,8,8
			c13.232,0,24,10.768,24,24c0,2.12,0.84,4.16,2.344,5.656C147.848,191.152,149.88,192,152,192h256c4.416,0,8-3.584,8-8
			c0-13.232,10.768-24,24-24c2.12,0,4.16-0.84,5.656-2.344C447.152,156.152,448,154.12,448,152L447.992,72z M432,144.8
			c-15.648,3.184-28,15.544-31.192,31.192H159.2c-3.184-15.648-15.544-28-31.192-31.192V79.192H128
			C143.648,76,156.008,63.648,159.192,48H400.8c3.192,15.648,15.552,28,31.2,31.192V144.8z"/>
	</g>
</g>
<g>
	<g>
		<path  fill="#fff" d="M280,64c-26.472,0-48,21.528-48,48s21.528,48,48,48s48-21.528,48-48S306.472,64,280,64z M280,144
			c-17.648,0-32-14.352-32-32s14.352-32,32-32s32,14.352,32,32S297.648,144,280,144z"/>
	</g>
</g>
<g>
	<g>
		<rect  fill="#fff" x="48" y="96" width="16" height="16"/>
	</g>
</g>
<g>
	<g>
		<rect  fill="#fff" x="16" y="96" width="16" height="16"/>
	</g>
</g>
<g>
	<g>
		<rect  fill="#fff" x="16" y="128" width="16" height="16"/>
	</g>
</g>
<g>
	<g>
		<rect  fill="#fff" x="16" y="160" width="16" height="16"/>
	</g>
</g>
<g>
	<g>
		<rect  fill="#fff" x="16" y="192" width="16" height="16"/>
	</g>
</g>
<g>
	<g>
		<rect  fill="#fff" x="16" y="224" width="16" height="16"/>
	</g>
</g>
<g>
	<g>
		<rect  fill="#fff" x="432" y="272" width="16" height="16"/>
	</g>
</g>
<g>
	<g>
		<rect  fill="#fff" x="432" y="240" width="16" height="16"/>
	</g>
</g>
<g>
	<g>
		<rect  fill="#fff" x="432" y="304" width="16" height="16"/>
	</g>
</g>
<g>
	<g>
		<rect  fill="#fff" x="432" y="336" width="16" height="16"/>
	</g>
</g>
<g>
	<g>
		<rect  fill="#fff" x="432" y="368" width="16" height="16"/>
	</g>
</g>
<g>
	<g>
		<rect  fill="#fff" x="432" y="400" width="16" height="16"/>
	</g>
</g>
<g>
	<g>
		<rect  fill="#fff" x="400" y="400" width="16" height="16"/>
	</g>
</g>
<g>
	<g>
		<rect  fill="#fff" x="368" y="400" width="16" height="16"/>
	</g>
</g>
<g>
	<g>
		<rect  fill="#fff" x="336" y="400" width="16" height="16"/>
	</g>
</g>
<g>
	<g>
		<rect  fill="#fff" x="304" y="400" width="16" height="16"/>
	</g>
</g>
<g>
	<g>
		<rect  fill="#fff" x="168" y="104" width="16" height="16"/>
	</g>
</g>
<g>
	<g>
		<rect  fill="#fff" x="376" y="104" width="16" height="16"/>
	</g>
</g>
<g>
</g>
<g>
</g>
<g>
</g>
<g>
</g>
<g>
</g>
<g>
</g>
<g>
</g>
<g>
</g>
<g>
</g>
<g>
</g>
<g>
</g>
<g>
</g>
<g>
</g>
<g>
</g>
<g>
</g>
</svg>
