<svg height="480pt" viewBox="0 -36 480 480" width="480pt" xmlns="http://www.w3.org/2000/svg"><path  fill="#fff" d="m416 168h16v32h-16zm0 0"/><path  fill="#fff" d="m416 216h16v16h-16zm0 0"/><path  fill="#fff" d="m448 192h16v48h-16zm0 0"/><path  fill="#fff" d="m448 256h16v16h-16zm0 0"/><path  fill="#fff" d="m48 168h16v32h-16zm0 0"/><path  fill="#fff" d="m48 216h16v16h-16zm0 0"/><path  fill="#fff" d="m16 192h16v48h-16zm0 0"/><path  fill="#fff" d="m16 256h16v16h-16zm0 0"/><path  fill="#fff" d="m240 128c-4.417969 0-8-3.582031-8-8h-16c.042969 10.132812 6.445312 19.148438 16 22.527344v9.472656h16v-9.472656c11.011719-3.878906 17.621094-15.132813 15.644531-26.640625-1.980469-11.507813-11.96875-19.910157-23.644531-19.886719-4.417969 0-8-3.582031-8-8s3.582031-8 8-8 8 3.582031 8 8h16c-.042969-10.132812-6.445312-19.148438-16-22.527344v-9.472656h-16v9.472656c-11.011719 3.878906-17.621094 15.132813-15.644531 26.640625 1.980469 11.507813 11.96875 19.910157 23.644531 19.886719 4.417969 0 8 3.582031 8 8s-3.582031 8-8 8zm0 0"/><path  fill="#fff" d="m168 104c0 39.765625 32.234375 72 72 72s72-32.234375 72-72-32.234375-72-72-72c-39.746094.042969-71.957031 32.253906-72 72zm72-56c30.929688 0 56 25.070312 56 56s-25.070312 56-56 56-56-25.070312-56-56c.035156-30.914062 25.085938-55.964844 56-56zm0 0"/><path  fill="#fff" d="m40 80h16c-9.089844 12.121094-10.554688 28.335938-3.777344 41.886719 6.777344 13.554687 20.625 22.113281 35.777344 22.113281-9.089844 12.121094-10.554688 28.335938-3.777344 41.886719 6.777344 13.554687 20.625 22.113281 35.777344 22.113281h72c2.121094 0 4.15625-.84375 5.65625-2.34375l8.558594-8.558594c1.867187-1.863281 2.691406-4.527344 2.214844-7.117187-.480469-2.589844-2.207032-4.78125-4.613282-5.851563-21.894531-9.824218-38.796875-28.203125-46.761718-50.839844-6.738282-18.964843-6.738282-39.671874 0-58.632812 6.171874-17.351562 17.605468-32.34375 32.707031-42.886719 1.941406-1.355469 3.1875-3.5 3.398437-5.859375.210938-2.359375-.636718-4.691406-2.3125-6.367187l-17.199218-17.199219c-1.5-1.5-3.53125-2.33984375-5.648438-2.34375h-128c-22.089844 0-40 17.910156-40 40s17.910156 40 40 40zm-17.023438-56.945312c4.519532-4.507813 10.640626-7.046876 17.023438-7.054688h124.6875l8.410156 8.414062c-14.167968 11.933594-24.902344 27.421876-31.105468 44.875-7.980469 22.4375-7.980469 46.9375 0 69.375 7.800781 22.074219 22.824218 40.867188 42.640624 53.335938h-64.632812c-13.253906 0-24-10.746094-24-24s10.746094-24 24-24c4.417969 0 8-3.582031 8-8s-3.582031-8-8-8h-32c-13.253906 0-24-10.746094-24-24s10.746094-24 24-24h16v-16h-64c-9.707031.011719-18.460938-5.824219-22.1875-14.785156-3.726562-8.960938-1.6875-19.285156 5.164062-26.160156zm0 0"/><path  fill="#fff" d="m322.953125 74.710938c6.738281 18.960937 6.738281 39.664062 0 58.625-7.96875 22.617187-24.867187 40.976562-46.746094 50.792968-2.40625 1.070313-4.132812 3.261719-4.613281 5.851563-.476562 2.589843.351562 5.253906 2.214844 7.117187l8.558594 8.558594c1.496093 1.496094 3.519531 2.335938 5.632812 2.34375h72c15.152344 0 29-8.558594 35.777344-22.113281 6.777344-13.550781 5.3125-29.765625-3.777344-41.886719 15.152344 0 29-8.558594 35.777344-22.113281 6.777344-13.550781 5.3125-29.765625-3.777344-41.886719h16c22.089844 0 40-17.910156 40-40s-17.910156-40-40-40h-128c-2.121094 0-4.15625.84375-5.65625 2.34375l-17.199219 17.199219c-1.675781 1.675781-2.523437 4.007812-2.3125 6.367187.210938 2.359375 1.457031 4.503906 3.398438 5.859375 15.117187 10.554688 26.554687 25.570313 32.722656 42.941407zm-7.640625-58.710938h124.6875c13.253906 0 24 10.746094 24 24s-10.746094 24-24 24h-64v16h16c13.253906 0 24 10.746094 24 24s-10.746094 24-24 24h-32c-4.417969 0-8 3.582031-8 8s3.582031 8 8 8c13.253906 0 24 10.746094 24 24s-10.746094 24-24 24h-64.632812c19.8125-12.453125 34.835937-31.230469 42.640624-53.289062 7.980469-22.433594 7.980469-46.933594 0-69.367188-6.203124-17.472656-16.941406-32.980469-31.121093-44.929688zm0 0"/><path  fill="#fff" d="m448 360c-.027344-26.5-21.5-47.972656-48-48-.902344 0-1.808594 0-2.703125.078125-7.746094-22.085937-30.296875-35.367187-53.371094-31.429687s-39.945312 23.945312-39.925781 47.351562h16c.046875-16.539062 12.6875-30.316406 29.160156-31.785156s31.351563 9.859375 34.320313 26.128906c.378906 2.160156 1.628906 4.066406 3.457031 5.28125 1.828125 1.203125 4.070312 1.613281 6.207031 1.136719 2.25-.511719 4.550781-.765625 6.855469-.761719 17.671875 0 32 14.328125 32 32s-14.328125 32-32 32h-320c-17.671875 0-32-14.328125-32-32s14.328125-32 32-32c2.304688-.003906 4.605469.25 6.855469.761719 2.136719.472656 4.375.0625 6.207031-1.136719 1.828125-1.214844 3.078125-3.121094 3.457031-5.28125 2.96875-16.269531 17.847657-27.597656 34.320313-26.128906s29.113281 15.246094 29.160156 31.785156h16c.019531-23.40625-16.851562-43.414062-39.925781-47.351562s-45.625 9.34375-53.371094 31.429687c-.894531-.078125-1.800781-.078125-2.703125-.078125-18.945312-.03125-36.128906 11.097656-43.847656 28.402344-7.714844 17.300781-4.515625 37.523437 8.167968 51.597656h-44.320312v16h480v-16h-44.320312c7.925781-8.773438 12.316406-20.175781 12.320312-32zm0 0"/><path  fill="#fff" d="m232 264h16v16h-16zm0 0"/><path  fill="#fff" d="m240 224c-26.5.027344-47.972656 21.5-48 48 0 34.910156 40.617188 75.929688 42.34375 77.65625 3.125 3.121094 8.1875 3.121094 11.3125 0 1.726562-1.726562 42.34375-42.746094 42.34375-77.65625-.027344-26.5-21.5-47.972656-48-48zm0 108.289062c-12.328125-13.890624-32-40.289062-32-60.289062 0-17.671875 14.328125-32 32-32s32 14.328125 32 32c0 20-19.671875 46.398438-32 60.289062zm0 0"/></svg>