<?xml version="1.0" standalone="no"?>
<!DOCTYPE svg PUBLIC "-//W3C//DTD SVG 1.1//EN" "http://www.w3.org/Graphics/SVG/1.1/DTD/svg11.dtd"><svg class="icon" height="512" viewBox="0 0 1024 1024" version="1.1" xmlns="http://www.w3.org/2000/svg"><path d="M319.301777 91.4245a384.393285 384.393285 0 0 0 54.011132 27.564145 450.145968 450.145968 0 0 0-25.215835 58.479761h20.154429a415.901679 415.901679 0 0 1 23.369105-51.434831 384.074097 384.074097 0 0 0 115.454781 21.932761v29.479271h27.358952V147.943537A384.074097 384.074097 0 0 0 649.889121 126.010776a415.901679 415.901679 0 0 1 23.369106 51.434831h20.154428A450.145968 450.145968 0 0 0 668.128423 118.965846a384.393285 384.393285 0 0 0 54.07953-27.541346 366.883555 366.883555 0 0 1 90.991317 86.043906h37.61856a395.610456 395.610456 0 0 0-660.034733 0h37.618559A366.883555 366.883555 0 0 1 319.301777 91.4245z m379.377477-14.36345a361.229372 361.229372 0 0 1-42.634368 20.519215 261.916374 261.916374 0 0 0-44.093512-55.287884 362.369328 362.369328 0 0 1 86.796277 34.768669z m-138.390703-44.13911c28.521708 12.220332 54.717905 37.276573 76.878657 71.634857a361.366166 361.366166 0 0 1-102.755666 18.854879V31.052411q13.109498 0.478782 25.945407 1.869529z m-79.13577 0q12.813109-1.390747 25.899808-1.869529v92.359265a361.388966 361.388966 0 0 1-102.755666-18.854879C426.457675 70.198513 452.722269 45.142272 481.17558 32.92194zM385.419246 97.557465a361.229372 361.229372 0 0 1-42.634368-20.519214 362.369328 362.369328 0 0 1 86.636683-34.768669A261.916374 261.916374 0 0 0 385.419246 97.557465zM813.472859 613.296522A366.815158 366.815158 0 0 1 720.566416 700.776773a384.393285 384.393285 0 0 0-52.278399-26.538184A452.97306 452.97306 0 0 0 694.370219 613.296522h-20.086031a419.025159 419.025159 0 0 1-24.258272 53.897137 384.074097 384.074097 0 0 0-115.545977-21.978359v-29.205682h-27.358952V645.2153a384.074097 384.074097 0 0 0-115.591575 21.978359A419.025159 419.025159 0 0 1 367.179944 613.296522h-20.086031a452.97306 452.97306 0 0 0 26.059402 60.942067 384.370486 384.370486 0 0 0-52.278398 26.538184A366.815158 366.815158 0 0 1 228.105268 613.296522H190.532306a395.610456 395.610456 0 0 0 660.536314 0z m-471.691143 100.156566a361.320568 361.320568 0 0 1 41.973193-20.519214 269.782072 269.782072 0 0 0 42.429176 54.900298 362.506123 362.506123 0 0 1-84.402369-34.381084z m132.941711 44.025115c-26.766175-13.474284-51.275237-38.325333-72.204836-71.498063a361.320568 361.320568 0 0 1 104.602396-19.493254v93.476422q-16.392572-0.501581-32.39756-2.507904z m92.131273 0q-15.959389 2.006323-32.39756 2.5991v-93.476421a361.320568 361.320568 0 0 1 104.579597 19.493253c-20.9068 33.058734-45.415861 57.909783-72.182037 71.361269z m90.968518-64.384735a361.320568 361.320568 0 0 1 41.973193 20.519214 362.506123 362.506123 0 0 1-84.356771 34.495079A269.782072 269.782072 0 0 0 657.823218 693.093468zM266.954981 496.268602H209.706372V294.108741h57.248609v-66.117469H70.130115v66.117469h53.942735v202.159861H70.130115v75.23712h196.824866v-75.23712zM461.887518 499.027297c-62.310015 0-89.304181-58.023779-89.304181-58.023779h-70.677294v129.727034h70.677294V526.659839s33.058734 44.070713 107.155898 44.070713c80.366923 0 126.922741-49.018124 126.922741-112.468095 0-69.924923-77.129447-105.628356-144.386872-104.875985-65.342299 0.729572-73.709578-33.537516-73.709579-44.16191S396.248831 278.149352 437.857238 278.149352c46.077036 0 83.216814 59.277731 83.216815 59.277731h70.677294V225.711359h-70.677294v25.717416c-5.49459-6.383756-29.046088-29.137285-85.884313-29.137285-119.399029 0-133.374894 63.563967-133.374894 102.208488 0 58.798949 72.957207 100.133767 141.080999 100.703745 48.151757 0.410384 76.947054 13.109498 76.947055 36.091018 0.091197 10.647192-14.249455 37.732556-57.955382 37.732556zM613.410518 396.522421c0 96.212317 79.796945 174.23093 178.220777 174.23093s178.220777-77.995814 178.220778-174.23093-79.796945-174.23093-178.220778-174.230931S613.410518 300.287305 613.410518 396.522421z m257.31095-1.709935C870.812664 452.517077 837.206751 499.300886 795.803536 499.300886s-75.23712-46.783809-75.23712-104.4884 33.605914-104.4884 75.077526-104.4884 75.168722 46.76101 75.168722 104.4884zM9.233647 847.306764h23.483101v171.609031H9.233647zM181.344258 935.97257q-9.119651-6.839738-26.036603-10.852385l-23.323508-5.494589q-23.551498-5.608585-30.208843-9.347643a19.744044 19.744044 0 0 1-10.19121-18.467293 27.586944 27.586944 0 0 1 8.61807-20.086031q8.61807-8.640869 28.339315-8.640869 24.417865 0 34.609075 13.428686 5.49459 7.364118 7.158926 21.134791h21.841564q0-28.612905-18.353297-41.654005t-44.617892-13.018302q-28.544507 0-44.116311 14.842232a50.15808 50.15808 0 0 0-15.571804 37.960547q0 21.385581 15.845393 32.12397 9.119651 6.201363 31.234804 11.399563l22.616735 5.198201q18.239302 4.331834 26.925769 10.168411t8.481275 19.972036q0 18.695284-20.040433 25.922607a67.189028 67.189028 0 0 1-22.958721 3.739057q-28.134123 0-39.260097-17.053747a48.220154 48.220154 0 0 1-6.634546-23.711092h-21.909961q-0.341987 27.792136 17.327337 44.047913T130.069021 1023.931603a88.916596 88.916596 0 0 0 46.989001-12.265931q20.222826-12.26593 20.222826-40.764839-0.091197-22.890324-15.93659-34.928263zM304.07196 842.632943q-43.455136 0-65.638688 31.781983-17.281738 24.759852-17.281738 59.57412 0 38.553324 20.200027 63.837556 22.662332 26.173398 62.264416 26.173398 42.406377 0 65.296701-29.912455 19.516053-25.466625 19.516052-63.837556 0-35.52104-17.053747-58.297368-21.864363-29.319678-67.303023-29.319678z m46.783809 138.573095q-13.679476 22.046756-44.458298 22.046756-32.351962 0-46.783809-19.58445t-14.431848-48.106158q0-35.657835 16.825756-53.965535t43.455137-18.239301q27.358953 0 43.318341 18.467293t15.822595 48.744534a93.864007 93.864007 0 0 1-13.747874 50.65966zM443.55702 976.509418a103.599234 103.599234 0 0 1 17.988511-12.037939l15.95939-8.868861q21.134791-11.787149 29.319677-20.086031a47.0118 47.0118 0 0 0 14.135459-34.335485 51.98201 51.98201 0 0 0-13.269092-34.586276q-13.269092-15.526206-41.995992-15.526206-34.586276 0-48.242954 24.30387-7.706105 13.679476-8.070891 35.635035h21.385582q0.455983-15.571804 4.901812-24.372267 8.298882-16.392572 29.912455-16.392572 14.591441 0 23.369105 8.595271t8.754865 23.232311a30.801621 30.801621 0 0 1-9.575633 22.229149 105.149575 105.149575 0 0 1-21.089193 15.024625l-22.343145 12.881506q-22.548337 13.086699-30.322839 29.091687a97.489068 97.489068 0 0 0-8.937258 37.61856h114.839204v-19.85804H428.737587a43.819923 43.819923 0 0 1 14.819433-22.548337zM539.67814 875.486485h92.518859a301.746449 301.746449 0 0 0-33.651512 48.014962q-27.108162 47.422185-35.042259 95.323151h23.25511q5.380594-25.694616 8.754865-37.253774a285.78706 285.78706 0 0 1 15.41221-39.830075 275.687046 275.687046 0 0 1 23.665494-41.813599 195.38852 195.38852 0 0 1 21.43118-27.222158v-18.239302h-116.275549zM728.682905 851.638598q-36.091018 0-49.88449 38.074543-7.364118 20.519214-7.364118 48.949726 0 36.797791 12.26593 58.639355 14.728236 26.173398 44.845883 26.173398 33.400721 0 48.128958-31.918778 10.168411-22.320346 10.168411-56.42784 0-35.977023-11.217171-56.655831-14.454647-26.834573-46.943403-26.834573z m25.808612 138.18551q-9.712428 14.477446-26.082201 14.477446-20.359621 0-28.772499-23.711092-5.49459-15.526206-5.49459-41.038429 0-33.993499 8.595271-51.45763t27.199359-17.464132q20.245625 0 27.358953 18.398896t7.022131 46.897805q-0.113996 39.419691-9.826424 53.897136zM861.738612 851.638598q-36.091018 0-49.884491 38.074543-7.364118 20.519214-7.364118 48.949726 0 36.797791 12.265931 58.639355 14.728236 26.173398 44.845883 26.173398 33.400721 0 48.128957-31.918778 10.168411-22.320346 10.168411-56.42784 0-35.977023-11.21717-56.655831-14.454647-26.834573-46.943403-26.834573z m25.808612 138.18551q-9.712428 14.477446-26.105001 14.477446-20.359621 0-28.772499-23.711092-5.49459-15.526206-5.494589-41.038429 0-33.993499 8.595271-51.45763t27.222158-17.464132q20.245625 0 27.358952 18.398896t7.022131 46.897805q-0.113996 39.419691-9.826423 53.897136zM998.191388 852.345371q-4.44583 19.402057-13.428686 24.600258t-31.781983 7.409717V900.565525h39.351293v118.555462h22.343145v-166.775616z" fill="#225E63" /></svg>
