<?xml version="1.0" encoding="utf-8"?>
<!-- Generator: Adobe Illustrator 19.0.0, SVG Export Plug-In . SVG Version: 6.00 Build 0)  -->
<svg version="1.1" id="Layer_1" xmlns="http://www.w3.org/2000/svg" xmlns:xlink="http://www.w3.org/1999/xlink" x="0px" y="0px"
	 viewBox="0 0 324 152" style="enable-background:new 0 0 324 152;" xml:space="preserve">
<style type="text/css">
	.st0{fill:#32AF4A;}
	.st1{fill:#01676E;}
	.st2{fill:none;stroke:#231F20;stroke-width:0.4692;stroke-miterlimit:10;}
</style>
<g id="XMLID_1580_">
	<g id="XMLID_20_">
		<path id="XMLID_1578_" class="st0" d="M115.7,98.1c0,0,2.9,31.1,11.6,37.4c3.4,2.5,8,2.8,11.8,1.2c6.3-2.7,8.9-10.2,11.8-15.9
			c4.1-8,8.1-16.1,12.4-24.1c2.6-4.9,5.3-9.7,8.1-14.4c0.8-1.3,1.6-2.6,2.5-3.9c0,0,29.3-46.2,39.1-58l-1.4-2.9
			c-0.1-0.2-2.8,0.2-3.1,0.2c-2.5,0.2-5,0.7-7.4,1.4c-3,0.8-6,2-8.6,3.7c-3.2,2.1-5.5,5.2-7.7,8.3c-9.8,13.9-18.1,28.8-26.3,43.7
			c-3.6,6.6-7.2,13.1-10.8,19.7c-2.3,4.2-4.8,8.2-7.4,12.1c0,0-1.4,1.7-3.8-5.6l-3.9-11.2C132.7,90.1,126.1,83,115.7,98.1z"/>
		<path id="XMLID_1486_" class="st1" d="M161.9,51.7v13.7l9.2-16l-14.6-31.8l-139.2,7l27.6,73.2V52.1h24.6c0,0,16,1.2,18.6,10.4
			c0,0,6,15.4-13.7,20.5c0,0-5.1,1.4-12.8,0.9v13.9H44.8l12.7,33.6l58.2-19.9l-2.1-13.3l-0.1-0.9c-19.3-1.3-21-19.3-21-19.3
			C90.6,59.2,108.3,54,108.3,54c16-5.3,27.8,0,27.8,0L136,66.1c-3.8-1.8-8-3.2-12.2-3.3c-3.9-0.1-7.8,1.1-10.5,3.9
			c-4.2,4.4-3.5,11.9,0.3,16.3c7.9,9.2,23.7,1.8,23.7,1.8v11.8h-0.9l3.1,8l5-8.7V51.7H161.9z M152.8,28.2c5.8,0,10.5,4.4,10.5,9.8
			s-4.7,9.8-10.5,9.8c-5.8,0-10.5-4.4-10.5-9.8S147,28.2,152.8,28.2z"/>
		<path id="XMLID_1441_" class="st1" d="M72,66.9c0,0-0.3-4.6-6.6-5h-4.1v12.1h4.1C65.4,74.1,72.5,73.6,72,66.9z"/>
		<polygon id="XMLID_1255_" class="st2" points="44.8,97.9 44.8,97.9 44.8,97.9 		"/>
		<polygon id="XMLID_1144_" class="st1" points="180.7,69.9 189.2,88.3 165.3,95.9 		"/>
		<path id="XMLID_780_" class="st1" d="M214.9,57.6c11.6,0,18.5,7.8,18.5,22.3s-6.9,22.9-18.5,22.9h-16.4V57.6H214.9z M208.2,94.1
			h4.5c7.2,0,11-4.6,11-14.2c0-8.8-4.1-13.5-11-13.5h-4.5V94.1z"/>
		<path id="XMLID_754_" class="st1" d="M235.7,88.5l7.9-0.9c0.5,3,1.4,5.2,2.9,6.6c1.5,1.4,3.4,2.1,5.9,2.1c2.6,0,4.6-0.6,5.9-1.9
			c1.3-1.3,2-2.7,2-4.4c0-1.1-0.3-2-0.8-2.8c-0.6-0.8-1.5-1.4-2.9-2c-1-0.4-3.1-1-6.5-2c-4.4-1.2-7.4-2.7-9.2-4.5
			c-2.5-2.5-3.7-5.6-3.7-9.2c0-2.3,0.6-4.5,1.7-6.5c1.2-2,2.8-3.6,5-4.6c2.2-1.1,4.8-1.6,7.9-1.6c5.1,0,8.9,1.3,11.4,3.8
			s3.9,5.9,4,10l-8.1,0.4c-0.3-2.3-1.1-4-2.2-5.1c-1.1-1-2.9-1.5-5.2-1.5c-2.4,0-4.2,0.5-5.6,1.6c-0.9,0.7-1.3,1.6-1.3,2.8
			c0,1.1,0.4,2,1.2,2.8c1,1,3.5,2,7.5,3c4,1.1,6.9,2.1,8.8,3.3c1.9,1.1,3.4,2.7,4.5,4.6c1.1,2,1.6,4.4,1.6,7.3
			c0,2.6-0.6,5.1-1.9,7.3c-1.3,2.3-3.1,4-5.4,5.1c-2.3,1.1-5.3,1.7-8.8,1.7c-5.1,0-9-1.3-11.7-4C237.9,97.4,236.2,93.5,235.7,88.5z"
			/>
		<path id="XMLID_752_" class="st1" d="M271.1,88.5l7.9-0.9c0.5,3,1.4,5.2,2.9,6.6c1.5,1.4,3.4,2.1,5.9,2.1c2.6,0,4.6-0.6,5.9-1.9
			c1.3-1.3,2-2.7,2-4.4c0-1.1-0.3-2-0.8-2.8c-0.6-0.8-1.5-1.4-2.9-2c-1-0.4-3.1-1-6.5-2c-4.4-1.2-7.4-2.7-9.2-4.5
			c-2.5-2.5-3.7-5.6-3.7-9.2c0-2.3,0.6-4.5,1.7-6.5c1.2-2,2.8-3.6,5-4.6c2.2-1.1,4.8-1.6,7.9-1.6c5.1,0,8.9,1.3,11.4,3.8
			c2.6,2.5,3.9,5.9,4,10l-8.1,0.4c-0.3-2.3-1.1-4-2.2-5.1c-1.1-1-2.9-1.5-5.2-1.5c-2.4,0-4.2,0.5-5.6,1.6c-0.9,0.7-1.3,1.6-1.3,2.8
			c0,1.1,0.4,2,1.2,2.8c1,1,3.5,2,7.5,3c4,1.1,6.9,2.1,8.8,3.3c1.9,1.1,3.4,2.7,4.5,4.6c1.1,2,1.6,4.4,1.6,7.3
			c0,2.6-0.6,5.1-1.9,7.3c-1.3,2.3-3.1,4-5.4,5.1c-2.3,1.1-5.3,1.7-8.8,1.7c-5.1,0-9-1.3-11.7-4C273.3,97.4,271.7,93.5,271.1,88.5z"
			/>
	</g>
	<g id="XMLID_85_">
		<path id="XMLID_86_" class="st1" d="M194,118.3c0-6.7,3.7-11,9.6-11c4.5,0,8.1,3,8.7,7.2h-2c-0.6-3.1-3.3-5.3-6.7-5.3
			c-4.6,0-7.5,3.6-7.5,9.1c0,5.7,2.9,9.2,7.5,9.2c3.4,0,6-1.8,6.7-4.8h2c-0.8,4.2-4.1,6.7-8.7,6.7C197.8,129.5,194,125.1,194,118.3z
			"/>
		<path id="XMLID_96_" class="st1" d="M228.8,124.6c-0.5,2.7-3.1,4.7-6.6,4.7c-4.4,0-7.3-3.1-7.3-8.2c0-5,2.8-8.2,7.1-8.2
			c4.2,0,6.9,3.1,6.9,7.8v0.9h-12v0.1c0,3.6,2.1,5.9,5.3,5.9c2.4,0,4.1-1.2,4.6-3H228.8z M216.9,120h10c0-3.2-2-5.3-4.9-5.3
			C219.1,114.6,217.1,116.8,216.9,120z"/>
		<path id="XMLID_99_" class="st1" d="M232,113.1h1.8v2.8h0.1c0.6-1.9,2.1-3,4.1-3c0.5,0,1,0.1,1.3,0.2v2c-0.3-0.1-0.8-0.2-1.5-0.2
			c-2.3,0-3.7,1.8-3.7,4.4v9.9h-2V113.1z"/>
		<path id="XMLID_101_" class="st1" d="M244.8,109.2v3.8h3.2v1.7h-3.2v10.4c0,1.7,0.7,2.4,2.1,2.4c0.2,0,1,0,1.1-0.1v1.7
			c-0.2,0.1-1.1,0.1-1.5,0.1c-2.7,0-3.7-1.1-3.7-4v-10.4h-2.3v-1.7h2.3v-3.8H244.8z"/>
		<path id="XMLID_103_" class="st1" d="M251,108.6c0-0.7,0.6-1.3,1.3-1.3s1.3,0.6,1.3,1.3c0,0.7-0.6,1.3-1.3,1.3
			S251,109.3,251,108.6z M251.3,113.1h2v16h-2V113.1z"/>
		<path id="XMLID_106_" class="st1" d="M258.1,114.7h-2.2v-1.7h2.2v-1.8c0-2.8,1.3-4.1,4-4.1c0.5,0,0.9,0,1.3,0.1v1.7
			c-0.3-0.1-0.8-0.1-1.2-0.1c-1.4,0-2.1,0.7-2.1,2.4v1.8h3.3v1.7h-3.3v14.4h-2V114.7z M265.9,108.6c0-0.7,0.6-1.3,1.3-1.3
			s1.3,0.6,1.3,1.3c0,0.7-0.6,1.3-1.3,1.3S265.9,109.3,265.9,108.6z M266.3,113.1h2v16h-2V113.1z"/>
		<path id="XMLID_110_" class="st1" d="M285.3,124.6c-0.5,2.7-3.1,4.7-6.6,4.7c-4.4,0-7.3-3.1-7.3-8.2c0-5,2.8-8.2,7.1-8.2
			c4.2,0,6.9,3.1,6.9,7.8v0.9h-12v0.1c0,3.6,2.1,5.9,5.3,5.9c2.4,0,4.1-1.2,4.6-3H285.3z M273.5,120h10c0-3.2-2-5.3-4.9-5.3
			C275.7,114.6,273.7,116.8,273.5,120z"/>
		<path id="XMLID_113_" class="st1" d="M287.8,121.1c0-4.9,2.8-8.2,6.8-8.2c2.6,0,4.6,1.4,5.5,3.5h0v-9.7h2v22.4h-1.9v-3.4h0
			c-0.9,2.2-3,3.6-5.6,3.6C290.6,129.3,287.8,126,287.8,121.1z M289.8,121.1c0,3.9,2.1,6.4,5.2,6.4c3.1,0,5.2-2.6,5.2-6.4
			c0-3.8-2.1-6.4-5.2-6.4C291.9,114.7,289.8,117.2,289.8,121.1z"/>
	</g>
</g>
</svg>
