<svg height="492pt" viewBox="0 -108 492.0394 492" width="492pt" xmlns="http://www.w3.org/2000/svg" xmlns:xlink="http://www.w3.org/1999/xlink"><linearGradient id="a"><stop offset=".322" stop-color="#a163f5"/><stop offset=".466" stop-color="#b074ee"/><stop offset=".752" stop-color="#d8a1dd"/><stop offset=".898" stop-color="#efbad3"/></linearGradient><linearGradient id="b" gradientUnits="userSpaceOnUse" x1="246.0152" x2="246.0152" xlink:href="#a" y1="374.44797" y2="-88.48203"/><linearGradient id="c" gradientUnits="userSpaceOnUse" x1="247.0542" x2="247.0542" xlink:href="#a" y1="374.44797" y2="-88.48203"/><path d="m391.921875 97.902344h46.507813c3.3125 0 6-2.6875 6-6v-17.15625h10.859374c2.941407 8.765625 11.796876 14.105468 20.921876 12.617187 9.121093-1.488281 15.820312-9.371093 15.820312-18.617187 0-9.242188-6.699219-17.125-15.820312-18.613282-9.125-1.488281-17.980469 3.851563-20.921876 12.613282h-16.859374c-3.3125 0-6 2.6875-6 6v17.152344h-40.507813c-3.105469-9.394532-12.972656-14.757813-22.542969-12.25-6.457031-12.171876-14.691406-23.3125-24.433594-33.054688-.007812-.003906-.011718-.015625-.019531-.019531l-.015625-.015625c-31.132812-31.132813-75.21875-45.597656-118.746094-38.953125-43.523437 6.640625-81.292968 33.597656-101.722656 72.597656-4.773437-1.765625-10.058594-1.519531-14.644531.6875-4.589844 2.203125-8.085937 6.175781-9.691406 11.007813h-40.503907v-17.152344c0-3.3125-2.6875-6-6-6h-16.859374c-2.941407-8.761719-11.796876-14.101563-20.921876-12.613282-9.121093 1.492188-15.820312 9.371094-15.820312 18.613282 0 9.246094 6.699219 17.125 15.820312 18.617187 9.125 1.488281 17.980469-3.851562 20.921876-12.617187h10.859374v17.152344c0 3.3125 2.6875 6 6 6h46.503907c1.855469 5.476562 6.113281 9.804687 11.554687 11.75-1.660156 7.84375-2.636718 15.820312-2.925781 23.832031h-38.988281c-2.617188-8.875-11.28125-14.546875-20.460938-13.394531-9.183594 1.152343-16.175781 8.789062-16.519531 18.035156-.339844 9.25 6.070313 17.378906 15.140625 19.207031s18.132812-3.1875 21.394531-11.847656h39.539063c.464844 9.363281 1.878906 18.652343 4.21875 27.726562-1.714844 1.90625-3.027344 4.144531-3.847656 6.574219h-55.609376c-3.3125 0-6 2.6875-6 6v17.152344h-10.859374c-2.941407-8.765625-11.796876-14.105469-20.921876-12.617188-9.121093 1.492188-15.820312 9.371094-15.820312 18.617188 0 9.242187 6.699219 17.125 15.820312 18.613281 9.125 1.488281 17.980469-3.851563 20.921876-12.613281h16.859374c3.3125 0 6-2.6875 6-6v-17.152344h49.613282c2.394531 7.105469 8.765625 12.117188 16.234375 12.777344 24.261719 44.621094 71.007812 72.371094 121.796875 72.300781 50.785156-.066406 97.460937-27.941406 121.601562-72.625 6.53125-1.390625 11.847656-6.125 13.980469-12.453125h49.609375v17.152344c0 3.3125 2.6875 6 6 6h16.859375c2.941406 8.761718 11.796875 14.101562 20.921875 12.613281 9.121094-1.488281 15.820312-9.371094 15.820312-18.613281 0-9.246094-6.699218-17.125-15.820312-18.617188-9.125-1.488281-17.980469 3.851563-20.921875 12.617188h-10.867187v-17.152344c0-3.3125-2.6875-6-6-6h-55.609376c-.550781-1.640625-1.324218-3.195312-2.300781-4.625 2.65625-9.691406 4.25-19.640625 4.746094-29.675781h37.460937c3.261719 8.640625 12.304688 13.640625 21.355469 11.8125 9.050781-1.824219 15.445313-9.941407 15.101563-19.167969-.339844-9.226562-7.316406-16.847656-16.476563-18-9.160156-1.152344-17.808593 4.503906-20.425781 13.355469h-36.910156c-.292969-8.285157-1.328125-16.53125-3.09375-24.636719 4.546875-2.210938 8.023437-6.152344 9.644531-10.941406zm81.230469-36.011719c3.792968-.003906 6.863281 3.070313 6.863281 6.859375s-3.070313 6.863281-6.859375 6.863281-6.863281-3.074219-6.863281-6.863281c.003906-3.785156 3.074219-6.855469 6.859375-6.859375zm-454.277344 13.722656c-3.789062 0-6.863281-3.074219-6.863281-6.863281s3.074219-6.863281 6.863281-6.863281 6.863281 3.074219 6.863281 6.863281c-.003906 3.789062-3.074219 6.859375-6.863281 6.863281zm0 140.183594c-3.789062 0-6.859375-3.070313-6.859375-6.859375s3.070313-6.863281 6.859375-6.863281 6.863281 3.074219 6.863281 6.863281c-.003906 3.785156-3.074219 6.855469-6.863281 6.859375zm454.277344-13.722656c3.792968 0 6.863281 3.074219 6.863281 6.863281s-3.070313 6.859375-6.863281 6.859375c-3.789063 0-6.859375-3.070313-6.859375-6.859375.003906-3.789062 3.074219-6.859375 6.859375-6.863281zm-92.238282-110.171875c0 3.789062-3.070312 6.859375-6.859374 6.859375-3.789063 0-6.863282-3.070313-6.863282-6.859375 0-3.789063 3.074219-6.863282 6.863282-6.863282 3.789062.003907 6.855468 3.074219 6.859374 6.863282zm-262.945312-6.863282c3.789062 0 6.863281 3.074219 6.863281 6.863282 0 3.789062-3.074219 6.859375-6.863281 6.859375s-6.859375-3.070313-6.859375-6.859375c.003906-3.789063 3.074219-6.859375 6.863281-6.863282zm-66.296875 60.664063c-3.792969.003906-6.863281-3.070313-6.863281-6.859375s3.070312-6.863281 6.859375-6.863281c3.792969 0 6.863281 3.074219 6.863281 6.863281-.003906 3.785156-3.074219 6.855469-6.859375 6.859375zm68.542969 40.082031c0-3.789062 3.070312-6.859375 6.859375-6.859375 3.789062 0 6.863281 3.070313 6.863281 6.859375 0 3.789063-3.070312 6.859375-6.859375 6.863282-3.789063-.003907-6.859375-3.074219-6.863281-6.863282zm244.738281 6.863282c-3.789063 0-6.859375-3.074219-6.859375-6.863282 0-3.789062 3.070312-6.859375 6.859375-6.859375s6.863281 3.070313 6.863281 6.859375c-.003906 3.789063-3.074218 6.859375-6.863281 6.863282zm5.105469-25c-9.269532-2.617188-19.023438 2.175781-22.609375 11.113281-3.589844 8.9375.136719 19.144531 8.644531 23.664062-4.421875 7.546875-9.609375 14.613281-15.480469 21.09375l-5.414062-5.414062c-2.34375-2.339844-6.140625-2.339844-8.484375.003906s-2.34375 6.140625 0 8.484375l5.425781 5.425781c-21.734375 19.796875-49.714844 31.363281-79.085937 32.683594v-7.597656c0-3.316407-2.683594-6-6-6-3.3125 0-6 2.683593-6 6v7.597656c-29.371094-1.320313-57.351563-12.882813-79.085938-32.683594l5.425781-5.425781c2.3125-2.347656 2.296875-6.121094-.03125-8.453125-2.332031-2.328125-6.105469-2.34375-8.453125-.03125l-5.414062 5.414063c-6.109375-6.746094-11.480469-14.128907-16.011719-22.019532 7.476563-4.886718 10.492187-14.359375 7.210937-22.667968-3.277343-8.308594-11.945312-13.167969-20.746093-11.628907-1.660157-7.136719-2.695313-14.40625-3.09375-21.722656h13.558593c2.285157 6.050781 7.503907 10.515625 13.835938 11.835937 9.085938 47.527344 50.722656 81.851563 99.109375 81.703126 48.390625-.148438 89.816406-34.730469 98.609375-82.3125 5.367188-1.808594 9.640625-5.929688 11.644531-11.226563h15.644531c-.410156 7.46875-1.480468 14.886719-3.199218 22.164063zm-30.078125-21.941407c-3.789063 0-6.863281-3.074219-6.863281-6.863281s3.074218-6.863281 6.863281-6.863281c3.789062 0 6.863281 3.074219 6.863281 6.863281-.007812 3.789062-3.074219 6.855469-6.863281 6.859375zm-18.859375-6.859375c.011718 8.003906 5.070312 15.128906 12.625 17.78125-8.632813 41.171875-45.035156 70.59375-87.101563 70.398438-42.066406-.195313-78.195312-29.949219-86.449219-71.199219 6.574219-3.136719 10.746094-9.785156 10.714844-17.066406s-4.257812-13.890625-10.855468-16.972657c7.964843-41.59375 44.25-71.730468 86.597656-71.921874 42.347656-.1875 78.90625 29.621093 87.242187 71.140624-7.628906 2.605469-12.761719 9.773438-12.773437 17.839844zm-169.070313-6.863281c3.789063 0 6.859375 3.074219 6.863281 6.863281 0 3.789063-3.074218 6.863282-6.863281 6.863282-3.789062 0-6.863281-3.074219-6.863281-6.863282.003906-3.789062 3.074219-6.859375 6.863281-6.867187zm288.308594 0c3.789063 0 6.863281 3.074219 6.863281 6.863281 0 3.789063-3.074218 6.863282-6.863281 6.863282s-6.863281-3.074219-6.863281-6.863282c.003906-3.789062 3.074218-6.859375 6.863281-6.867187zm-82.300781 1.5c-1.746094-5.828125-6.1875-10.464844-11.933594-12.457031-8.441406-47.972656-50.042969-83.007813-98.753906-83.160156-48.714844-.152344-90.535156 34.617187-99.277344 82.539062-6.738281 1.460938-12.144531 6.472656-14.117188 13.078125h-13.226562c.304688-7.980469 1.363281-15.914063 3.160156-23.699219 5.492188-1.804687 9.847656-6.039062 11.808594-11.476562s1.3125-11.476563-1.761719-16.375c5.191407-10.355469 11.785157-19.949219 19.601563-28.5l5.347656 5.347656c2.347656 2.3125 6.121094 2.296875 8.453125-.035156 2.328125-2.328125 2.34375-6.101563.03125-8.449219l-5.335937-5.339844c21.746093-19.734375 49.667968-31.3125 79-32.765625v7.597656c0 3.316407 2.6875 6 6 6s6-2.683593 6-6v-7.597656c22.152343 1.015625 43.644531 7.867188 62.300781 19.863282 5.925781 3.816406 11.523437 8.117187 16.738281 12.863281l-5.382812 5.382812c-2.34375 2.339844-2.34375 6.140625 0 8.484375s6.144531 2.34375 8.484374 0l5.382813-5.378906c7.363281 8.089844 13.648437 17.097656 18.699219 26.800781-4.082032 5.136719-5.195313 12.03125-2.9375 18.191407 2.257812 6.160156 7.558594 10.703124 13.992187 11.988281 1.714844 7.589843 2.726563 15.320312 3.019531 23.097656zm0 0" fill="url(#b)"/><path d="m286.15625 113.378906c-.015625-14.207031-9.542969-26.648437-23.257812-30.371094v-12.6875c0-3.3125-2.683594-6-6-6-3.3125 0-6 2.6875-6 6v11.59375h-12.105469v-11.59375c0-3.3125-2.683594-6-6-6-3.3125 0-6 2.6875-6 6v11.59375h-12.839844c-3.316406 0-6 2.6875-6 6v101.855469c0 3.316407 2.683594 6 6 6h12.839844v10.800781c0 3.3125 2.6875 6 6 6 3.316406 0 6-2.6875 6-6v-10.800781h12.105469v10.800781c0 3.3125 2.6875 6 6 6 3.316406 0 6-2.6875 6-6v-11.890624c11.707031-3.15625 20.550781-12.761719 22.738281-24.683594s-2.671875-24.042969-12.492188-31.148438c8.171875-5.910156 13.011719-15.382812 13.011719-25.46875zm-12 50.929688c-.011719 10.742187-8.71875 19.449218-19.460938 19.460937h-34.742187v-38.921875h34.742187c10.742188.011719 19.449219 8.714844 19.460938 19.460938zm-19.460938-31.460938h-34.742187v-38.933594h34.742187c10.75 0 19.460938 8.714844 19.460938 19.464844s-8.710938 19.464844-19.460938 19.464844zm0 0" fill="url(#c)"/></svg>