<svg height="458pt" viewBox="0 -23 458 458" width="458pt" xmlns="http://www.w3.org/2000/svg" xmlns:xlink="http://www.w3.org/1999/xlink"><linearGradient id="a"><stop offset=".322" stop-color="#a163f5"/><stop offset=".466" stop-color="#b074ee"/><stop offset=".752" stop-color="#d8a1dd"/><stop offset=".898" stop-color="#efbad3"/></linearGradient><linearGradient id="b" gradientUnits="userSpaceOnUse" x1="117.111" x2="117.111" xlink:href="#a" y1="430" y2="-20.75"/><linearGradient id="c" gradientUnits="userSpaceOnUse" x1="296.064" x2="296.064" xlink:href="#a" y1="430" y2="-20.75"/><linearGradient id="d" gradientUnits="userSpaceOnUse" x1="381.293" x2="381.293" xlink:href="#a" y1="430" y2="-20.75"/><linearGradient id="e" gradientUnits="userSpaceOnUse" x1="367.456" x2="367.456" xlink:href="#a" y1="430" y2="-20.75"/><linearGradient id="f" gradientUnits="userSpaceOnUse" x1="348.151" x2="348.151" xlink:href="#a" y1="430" y2="-20.75"/><linearGradient id="g" gradientUnits="userSpaceOnUse" x1="407.049" x2="407.049" xlink:href="#a" y1="430" y2="-20.75"/><linearGradient id="h" gradientUnits="userSpaceOnUse" x1="393.211" x2="393.211" xlink:href="#a" y1="430" y2="-20.75"/><linearGradient id="i" gradientUnits="userSpaceOnUse" x1="373.907" x2="373.907" xlink:href="#a" y1="430" y2="-20.75"/><linearGradient id="j" gradientUnits="userSpaceOnUse" x1="305.053" x2="305.053" xlink:href="#a" y1="430" y2="-20.75"/><linearGradient id="k" gradientUnits="userSpaceOnUse" x1="390.546" x2="390.546" xlink:href="#a" y1="430" y2="-20.75"/><linearGradient id="l" gradientUnits="userSpaceOnUse" x1="451.63" x2="451.63" xlink:href="#a" y1="430" y2="-20.75"/><linearGradient id="m" gradientUnits="userSpaceOnUse" x1="437.792" x2="437.792" xlink:href="#a" y1="430" y2="-20.75"/><linearGradient id="n" gradientUnits="userSpaceOnUse" x1="418.488" x2="418.488" xlink:href="#a" y1="430" y2="-20.75"/><linearGradient id="o" gradientUnits="userSpaceOnUse" x1="448.94" x2="448.94" xlink:href="#a" y1="430" y2="-20.75"/><linearGradient id="p" gradientUnits="userSpaceOnUse" x1="429.636" x2="429.636" xlink:href="#a" y1="430" y2="-20.75"/><linearGradient id="q" gradientUnits="userSpaceOnUse" x1="389.354" x2="389.354" xlink:href="#a" y1="430" y2="-20.75"/><linearGradient id="r" gradientUnits="userSpaceOnUse" x1="251" x2="251" xlink:href="#a" y1="430" y2="-20.75"/><linearGradient id="s" gradientUnits="userSpaceOnUse" x1="181" x2="181" xlink:href="#a" y1="430" y2="-20.75"/><path d="m96.554688 379.554688h41.113281c3.3125 0 6-2.683594 6-6 0-3.3125-2.6875-6-6-6h-41.113281c-3.3125 0-6 2.6875-6 6 0 3.316406 2.6875 6 6 6zm0 0" fill="url(#b)"/><path d="m275.175781 89.949219c2.351563 2.308593 6.121094 2.292969 8.453125-.035157 2.328125-2.332031 2.34375-6.105468.03125-8.453124l-6.523437-6.523438h52.339843c3.316407 0 6-2.6875 6-6s-2.683593-6-6-6h-52.339843l6.523437-6.523438c2.3125-2.347656 2.296875-6.121093-.03125-8.453124-2.332031-2.328126-6.101562-2.34375-8.453125-.035157l-16.765625 16.773438c-2.34375 2.34375-2.34375 6.144531 0 8.484375zm0 0" fill="url(#c)"/><path d="m380.921875 74.9375h.742187c3.3125 0 6-2.6875 6-6s-2.6875-6-6-6h-.742187c-3.3125 0-6 2.6875-6 6s2.6875 6 6 6zm0 0" fill="url(#d)"/><path d="m367.214844 74.9375h.484375c3.3125 0 6-2.6875 6-6s-2.6875-6-6-6h-.484375c-3.316406 0-6 2.6875-6 6s2.683594 6 6 6zm0 0" fill="url(#e)"/><path d="m348.039062 74.9375h.226563c3.3125 0 6-2.6875 6-6s-2.6875-6-6-6h-.226563c-3.316406 0-6 2.6875-6 6s2.683594 6 6 6zm0 0" fill="url(#f)"/><path d="m407.417969 337.0625h-.738281c-3.3125 0-6 2.6875-6 6s2.6875 6 6 6h.738281c3.316406 0 6-2.6875 6-6s-2.683594-6-6-6zm0 0" fill="url(#g)"/><path d="m393.453125 337.0625h-.484375c-3.3125 0-6 2.6875-6 6s2.6875 6 6 6h.484375c3.316406 0 6-2.6875 6-6s-2.683594-6-6-6zm0 0" fill="url(#h)"/><path d="m374.019531 337.0625h-.226562c-3.3125 0-6 2.6875-6 6s2.6875 6 6 6h.226562c3.316407 0 6-2.6875 6-6s-2.683593-6-6-6zm0 0" fill="url(#i)"/><path d="m355.234375 337.0625h-85.875l6.523437-6.523438c2.34375-2.34375 2.34375-6.144531 0-8.488281-2.34375-2.339843-6.140624-2.34375-8.484374 0l-16.765626 16.769531c-2.34375 2.34375-2.34375 6.140626 0 8.484376l16.765626 16.769531c2.34375 2.34375 6.144531 2.339843 8.488281 0 2.34375-2.34375 2.339843-6.144531 0-8.488281l-6.527344-6.523438h85.875c3.3125 0 6-2.6875 6-6s-2.6875-6-6-6zm0 0" fill="url(#j)"/><path d="m373.011719 164.554688 16.765625 16.769531c2.34375 2.34375 6.144531 2.34375 8.488281 0s2.34375-6.144531 0-8.488281l-6.527344-6.523438h12.101563c3.3125 0 6-2.6875 6-6s-2.6875-6-6-6h-12.101563l6.527344-6.523438c2.34375-2.34375 2.34375-6.144531 0-8.488281s-6.144531-2.34375-8.488281 0l-16.765625 16.769531c-2.34375 2.34375-2.34375 6.140626 0 8.484376zm0 0" fill="url(#k)"/><path d="m452 154.3125h-.738281c-3.316407 0-6 2.6875-6 6s2.683593 6 6 6h.738281c3.3125 0 6-2.6875 6-6s-2.6875-6-6-6zm0 0" fill="url(#l)"/><path d="m438.035156 154.3125h-.484375c-3.316406 0-6 2.6875-6 6s2.683594 6 6 6h.484375c3.3125 0 6-2.6875 6-6s-2.6875-6-6-6zm0 0" fill="url(#m)"/><path d="m418.601562 154.3125h-.230468c-3.3125 0-6 2.6875-6 6s2.6875 6 6 6h.230468c3.3125 0 6-2.6875 6-6s-2.6875-6-6-6zm0 0" fill="url(#n)"/><path d="m449.183594 245.6875h-.484375c-3.3125 0-6 2.6875-6 6s2.6875 6 6 6h.488281c3.3125 0 6-2.6875 6-6s-2.6875-6-6-6zm0 0" fill="url(#o)"/><path d="m429.75 245.6875h-.226562c-3.316407 0-6 2.6875-6 6s2.683593 6 6 6h.226562c3.3125 0 6-2.6875 6-6s-2.6875-6-6-6zm0 0" fill="url(#p)"/><path d="m414.984375 245.6875h-36.777344l6.523438-6.523438c2.34375-2.34375 2.34375-6.144531 0-8.488281s-6.140625-2.34375-8.484375 0l-16.765625 16.769531c-2.34375 2.34375-2.34375 6.140626 0 8.484376l16.765625 16.769531c2.34375 2.34375 6.140625 2.34375 8.484375 0s2.34375-6.140625 0-8.484375l-6.523438-6.523438h36.777344c3.316406 0 6-2.6875 6-6 0-3.316406-2.683594-6-6-6zm0 0" fill="url(#q)"/><path d="m332 205c0-44.734375-36.265625-81-81-81s-81 36.265625-81 81 36.265625 81 81 81c44.714844-.050781 80.949219-36.285156 81-81zm-150 0c0-38.109375 30.890625-69 69-69s69 30.890625 69 69-30.890625 69-69 69c-38.089844-.042969-68.957031-30.910156-69-69zm0 0" fill="url(#r)"/><path d="m329.039062 283.855469c.148438-.121094.308594-.226563.449219-.367188.128907-.144531.253907-.292969.367188-.449219 42.859375-43.199218 42.859375-112.878906 0-156.078124-.113281-.15625-.238281-.304688-.367188-.449219-.140625-.140625-.300781-.246094-.449219-.367188-20.746093-20.605469-48.800781-32.160156-78.039062-32.144531-5.617188 0-11.222656.421875-16.777344 1.261719v-59.261719c-.023437-19.871094-16.125-35.9765625-36-36h-162.222656c-19.875.0234375-35.9765625 16.125-36 36v340c.0234375 19.875 16.125 35.976562 36 36h162.222656c19.875-.023438 35.976563-16.128906 36-36v-61.257812c5.554688.835937 11.160156 1.257812 16.777344 1.257812 29.238281.015625 57.292969-11.539062 78.039062-32.144531zm-317.039062-247.855469c.015625-13.25 10.75-23.984375 24-24h162.222656c13.25.015625 23.984375 10.75 24 24v6.222656h-210.222656zm210.222656 340c-.015625 13.25-10.75 23.984375-24 24h-162.222656c-13.25-.015625-23.984375-10.75-24-24v-28.890625h210.222656zm0-40.890625h-210.222656v-280.886719h210.222656v43.542969c-11.945312 3.199219-23.265625 8.382813-33.492187 15.335937-1.972657 1.335938-3.886719 2.753907-5.761719 4.210938v-30.050781c0-3.3125-2.6875-6-6-6h-19.070312c-3.3125 0-6 2.6875-6 6v226.738281c0 3.3125 2.6875 6 6 6h19.066406c3.3125 0 6-2.6875 6-6v-21.238281c11.636718 9.074219 24.988281 15.707031 39.253906 19.5zm-51.253906-241.847656v34.847656c-2.480469 2.578125-4.835938 5.277344-7.066406 8.101563v-42.949219zm-7.070312 180.539062c2.242187 2.835938 4.597656 5.539063 7.066406 8.113281v26.085938h-7.066406zm81.101562 25.289063v4.730468c-22.097656-1.265624-43.117188-9.96875-59.644531-24.691406l3.355469-3.355468c2.289062-2.351563 2.261718-6.105469-.058594-8.425782-2.320313-2.320312-6.074219-2.347656-8.425782-.058594l-3.34375 3.34375c-1.457031-1.652343-2.871093-3.355468-4.234374-5.113281-3.273438-4.242187-6.195313-8.742187-8.746094-13.453125v-94.132812c2.546875-4.710938 5.46875-9.207032 8.738281-13.449219 1.359375-1.753906 2.785156-3.449219 4.253906-5.105469l3.332031 3.332032c1.507813 1.550781 3.734376 2.167968 5.824219 1.617187 2.09375-.550781 3.726563-2.183594 4.277344-4.277344.550781-2.089843-.066406-4.316406-1.617187-5.824219l-3.335938-3.335937c3.191406-2.835937 6.5625-5.460937 10.09375-7.863281 14.6875-9.976563 31.804688-15.792969 49.53125-16.828125v4.714843c0 3.3125 2.6875 6 6 6s6-2.6875 6-6v-4.722656c22.078125 1.324219 43.070312 10.035156 59.601562 24.734375l-3.308593 3.304688c-1.550781 1.507812-2.167969 3.734375-1.617188 5.824219.550781 2.09375 2.183594 3.726562 4.277344 4.277343 2.089844.550781 4.316406-.066406 5.824219-1.617187l3.308594-3.304688c14.691406 16.527344 23.398437 37.515625 24.726562 59.589844h-4.722656c-3.3125 0-6 2.6875-6 6s2.6875 6 6 6h4.722656c-1.324219 22.078125-10.035156 43.070312-24.730469 59.601562l-3.308593-3.308593c-2.351563-2.289063-6.105469-2.261719-8.425782.058593-2.320312 2.320313-2.347656 6.074219-.058594 8.425782l3.308594 3.308594c-16.53125 14.691406-37.519531 23.402343-59.597656 24.726562v-4.722656c0-3.3125-2.6875-6-6-6s-6 2.6875-6 6zm0 0" fill="url(#s)"/><path d="m251.691406 251.304688c0 3.3125 2.6875 6 6 6s6-2.6875 6-6v-6.433594c9.394532-2.933594 15.796875-11.628906 15.808594-21.472656v-1.648438c.003906-6.257812-2.613281-12.234375-7.214844-16.480469 4.601563-4.25 7.214844-10.226562 7.214844-16.484375v-1.648437c-.011719-9.84375-6.414062-18.539063-15.808594-21.472657v-6.964843c0-3.3125-2.6875-6-6-6s-6 2.6875-6 6v5.957031h-4.382812v-5.957031c0-3.3125-2.6875-6-6-6s-6 2.6875-6 6v5.957031h-6.808594c-3.3125 0-6 2.6875-6 6v69.234375c0 3.3125 2.6875 6 6 6h6.808594v5.417969c0 3.316406 2.6875 6 6 6s6-2.683594 6-6v-5.417969h4.382812zm-17.191406-74.652344h22.515625c5.789063.011718 10.476563 4.699218 10.484375 10.484375v1.648437c-.007812 5.785156-4.695312 10.472656-10.484375 10.484375h-22.515625zm0 57.230468v-22.613281h22.515625c5.785156.007813 10.476563 4.695313 10.484375 10.484375v1.644532c-.007812 5.789062-4.699219 10.476562-10.484375 10.484374zm0 0" fill="url(#r)"/></svg>