<svg height="476pt" viewBox="-38 0 476 476.928" width="476pt" xmlns="http://www.w3.org/2000/svg"><path d="m200.472656 428.929688c21.71875.019531 43.28125-3.660157 63.761719-10.882813.160156.953125.238281 1.917969.238281 2.882813-.0625 8.808593-7.191406 15.933593-16 16h-96c-8.824218-.027344-15.972656-7.175782-16-16 0-.964844.082032-1.929688.242188-2.882813 20.480468 7.222656 42.042968 10.902344 63.757812 10.882813zm0 0" fill="#bddbff"/><path d="m152.472656 404.929688h96c7.714844.039062 14.320313 5.539062 15.761719 13.117187-41.269531 14.507813-86.25 14.507813-127.519531 0 1.46875-7.558594 8.054687-13.042969 15.757812-13.117187zm0 0" fill="#bddbff"/><path d="m152.472656 436.929688h96c0 17.671874-14.324218 32-32 32h-32c-17.671875 0-32-14.328126-32-32zm0 0" fill="#bddbff"/><path d="m256.472656 372.929688c8.828125.023437 15.976563 7.171874 16 16-.0625 8.808593-7.191406 15.933593-16 16h-112c-8.824218-.027344-15.972656-7.175782-16-16 .066406-8.8125 7.191406-15.9375 16-16zm0 0" fill="#bddbff"/><path d="m320.472656 236.929688c.019532 44.5-24.625 85.34375-64 106.078124v29.921876h-112v-29.921876c-52.019531-27.449218-76.476562-88.554687-57.761718-144.316406 18.714843-55.757812 75.085937-89.734375 133.132812-80.242187 58.046875 9.496093 100.65625 59.660156 100.628906 118.480469zm0 0" fill="#bddbff"/><g fill="#3d9ae2"><path d="m16.472656 236.929688c-.066406-83.933594 56.714844-157.257813 137.992188-178.203126l-4-15.503906c-78.652344 20.328125-137.203125 86.195313-148.167969 166.6875-10.96875 80.492188 27.828125 159.625 98.175781 200.25l8-13.839844c-56.835937-32.984374-91.867187-93.679687-92-159.390624zm0 0"/><path d="m222.707031 38.191406 33.695313-25.390625-9.601563-12.800781-51.128906 38.527344c-3.53125 2.652344-4.25 7.667968-1.597656 11.199218l38.519531 51.105469 12.800781-9.601562-28.28125-37.503907c79.863281 7.253907 145.832031 65.398438 163.058594 143.71875 17.230469 78.320313-18.25 158.777344-87.699219 198.875l8 13.839844c74.855469-43.1875 113.503906-129.570312 95.820313-214.160156-17.683594-84.589844-87.699219-148.253906-173.585938-157.839844zm0 0"/><path d="m328.472656 236.929688c.019532-62.125-44.574218-115.289063-105.75-126.089844-61.175781-10.796875-121.273437 23.890625-142.527344 82.261718-21.25 58.375 2.480469 123.582032 56.277344 154.640626v18.65625c-8.664062 3.023437-14.828125 10.75-15.851562 19.871093-1.023438 9.121094 3.273437 18.019531 11.050781 22.890625-3.625 6.234375-4.207031 13.78125-1.585937 20.5 2.625 6.71875 8.167968 11.875 15.058593 14.003906 3.277344 19.175782 19.875 33.214844 39.328125 33.265626h32c19.453125-.054688 36.046875-14.09375 39.320313-33.265626 6.894531-2.128906 12.4375-7.28125 15.0625-14s2.042969-14.269531-1.582031-20.503906c7.78125-4.871094 12.078124-13.769531 11.054687-22.890625-1.023437-9.121093-7.1875-16.847656-15.855469-19.871093v-18.65625c39.628906-22.820313 64.035156-65.082032 64-110.8125zm-240 0c-.019531-54.898438 39.753906-101.714844 93.933594-110.574219 54.175781-8.855469 106.789062 22.863281 124.25 74.90625 17.460938 52.046875-5.371094 109.078125-53.925781 134.691406-2.621094 1.386719-4.257813 4.105469-4.257813 7.070313v21.90625h-96v-21.90625c0-2.964844-1.636718-5.683594-4.253906-7.070313-36.765625-19.347656-59.773438-57.480469-59.746094-99.023437zm56 144h112c4.417969 0 8 3.578124 8 8 0 4.417968-3.582031 8-8 8h-112c-4.417968 0-8-3.582032-8-8 0-4.421876 3.582032-8 8-8zm72 80h-32c-10.132812-.042969-19.148437-6.445313-22.527344-16h77.054688c-3.375 9.554687-12.390625 15.957031-22.527344 16zm32-32h-96c-4.417968 0-8-3.582032-8-8 0-4.421876 3.582032-8 8-8h96c4.417969 0 8 3.578124 8 8 0 4.417968-3.582031 8-8 8zm0 0"/><path d="m208.472656 260.929688h-16c-4.417968 0-8-3.582032-8-8h-16c0 13.253906 10.746094 24 24 24v8h16v-8c13.257813 0 24-10.746094 24-24 0-13.257813-10.742187-24-24-24h-16c-4.417968 0-8-3.582032-8-8 0-4.421876 3.582032-8 8-8h16c4.417969 0 8 3.578124 8 8h16c0-13.257813-10.742187-24-24-24v-8h-16v8c-13.253906 0-24 10.742187-24 24 0 13.253906 10.746094 24 24 24h16c4.417969 0 8 3.578124 8 8 0 4.417968-3.582031 8-8 8zm0 0"/><path d="m248.472656 228.929688h16v16h-16zm0 0"/><path d="m136.472656 228.929688h16v16h-16zm0 0"/></g></svg>