<svg height="480pt" viewBox="0 -48 480 480" width="480pt" xmlns="http://www.w3.org/2000/svg" xmlns:xlink="http://www.w3.org/1999/xlink"><linearGradient id="a" gradientUnits="userSpaceOnUse" x1="28.904" x2="382.952" y1="389.44" y2="35.392"><stop offset="0" stop-color="#41dfd0"/><stop offset="1" stop-color="#ee83ef"/></linearGradient><path d="m368 240c4.210938-.039062 8.332031-1.203125 11.945312-3.367188 3.644532 2.179688 7.808594 3.34375 12.054688 3.367188 13.253906 0 24-10.746094 24-24s-10.746094-24-24-24c-4.246094.023438-8.410156 1.1875-12.054688 3.367188-3.613281-2.164063-7.734374-3.328126-11.945312-3.367188-13.253906 0-24 10.746094-24 24s10.746094 24 24 24zm24-32c4.417969 0 8 3.582031 8 8s-3.582031 8-8 8-8-3.582031-8-8 3.582031-8 8-8zm-24 0c.46875.058594.933594.160156 1.382812.304688-1.84375 4.964843-1.84375 10.425781 0 15.390624-.449218.144532-.914062.246094-1.382812.304688-4.417969 0-8-3.582031-8-8s3.582031-8 8-8zm-328 176h208c22.082031-.027344 39.972656-17.917969 40-40v-40h16c17.671875 0 32-14.328125 32-32h104c4.417969 0 8-3.582031 8-8v-144c0-4.417969-3.582031-8-8-8h-28.59375l-22.292969-42.742188v-.082031l-10.28125-19.664062-19.320312-37.046875c-.980469-1.886719-2.667969-3.300782-4.695313-3.941406-2.023437-.636719-4.222656-.441407-6.105468.539062l-108.710938 56.699219v-57.761719c0-4.417969-3.582031-8-8-8h-176c-4.417969 0-8 3.582031-8 8v96h-8c-22.082031.027344-39.9726562 17.917969-40 40v200c.0273438 22.082031 17.917969 39.972656 40 40zm232-40c0 13.253906-10.746094 24-24 24h-208c-13.253906 0-24-10.746094-24-24v-144h16v-16h-16v-16h248c4.417969 0 8 3.582031 8 8zm-80-192h-96v-83.550781c8.152344-5.335938 15.113281-12.296875 20.449219-20.449219h55.101562c5.335938 8.152344 12.296875 15.113281 20.449219 20.449219zm173.152344-94.089844 6.039062 11.585938-81.480468 42.503906h-34.582032l108.6875-56.648438zm-61.152344 230.089844h-16v-32h16c8.835938 0 16 7.164062 16 16s-7.164062 16-16 16zm128-32h-100.449219c-5.671875-9.867188-16.171875-15.964844-27.550781-16h-16v-64c0-13.253906-10.746094-24-24-24h-24v-24h192zm-107.679688-144 54.273438-28.3125 14.773438 28.3125zm24.679688-85.046875 7.414062 14.214844-116.414062 60.6875v-18.039063zm-285-10.953125h160v136h-16v-88.046875c0-2.894531-1.558594-5.558594-4.078125-6.976563-8.75-4.917968-15.980469-12.148437-20.898437-20.898437-1.417969-2.519531-4.082032-4.078125-6.976563-4.078125h-64.09375c-2.894531 0-5.558594 1.558594-6.976563 4.078125-4.917968 8.75-12.148437 15.980469-20.898437 20.898437-2.519531 1.417969-4.078125 4.082032-4.078125 6.976563v88.046875h-16zm-48 128c0-13.253906 10.746094-24 24-24h8v32h-32zm32 40h16v16h-16zm48 16h-16v-16h16zm272 104v-16h48v16zm64-16h16v16h-16zm32 0h16v16h-16zm-360 32h24v16h-32c-4.417969 0-8-3.582031-8-8v-24h16zm88-24h16v32c0 4.417969-3.582031 8-8 8h-32v-16h24zm16-72v32h-16v-24h-24v-16h32c4.417969 0 8 3.582031 8 8zm-112-8h32v16h-24v24h-16v-32c0-4.417969 3.582031-8 8-8zm40 80h8v16h-32v-24h24zm48 16h-32v-24h32zm-24-32h-16v-24h16v-16h24v40zm-48-40h24v16h-8v16h-16zm0 0" fill="url(#a)"/></svg>