<?xml version="1.0" encoding="utf-8"?>
<!-- Generator: Adobe Illustrator 19.0.0, SVG Export Plug-In . SVG Version: 6.00 Build 0)  -->
<svg version="1.1" id="Layer_1" xmlns="http://www.w3.org/2000/svg" xmlns:xlink="http://www.w3.org/1999/xlink" x="0px" y="0px"
	 viewBox="0 0 186 198.7" style="enable-background:new 0 0 186 198.7;" xml:space="preserve">
<style type="text/css">
	.st0{fill:none;stroke:#5D5E5E;stroke-width:5;stroke-linecap:round;stroke-linejoin:round;stroke-miterlimit:10;}
	.st1{fill:#5D5E5E;}
	.st2{fill-rule:evenodd;clip-rule:evenodd;fill:#5D5E5E;}
</style>
<g id="XMLID_11155_">
	<polygon id="XMLID_11104_" class="st0" points="11.8,65.3 173.2,65.3 92,11.7 	"/>
	<rect id="XMLID_7113_" x="5.1" y="163" class="st1" width="173.9" height="16.9"/>
	<rect id="XMLID_11108_" x="22.2" y="80.4" class="st1" width="17.3" height="67"/>
	<rect id="XMLID_11197_" x="48.7" y="80.4" class="st1" width="17.3" height="67"/>
	<rect id="XMLID_11476_" x="117.4" y="80.4" class="st1" width="17.3" height="67"/>
	<rect id="XMLID_11477_" x="144.1" y="80.4" class="st1" width="17.3" height="67"/>
	<g id="XMLID_12039_">
		<path id="XMLID_12041_" class="st1" d="M60.9,57V41h7.1c3,0,4.9,1.5,4.9,4c0,1.8-1.3,3.2-3,3.5v0.1c2.2,0.2,3.8,1.8,3.8,3.9
			c0,2.8-2.1,4.6-5.5,4.6H60.9z M64.2,47.6h2.5c1.8,0,2.8-0.8,2.8-2.1c0-1.3-0.9-2-2.5-2h-2.9V47.6z M67.2,54.5c1.9,0,3-0.8,3-2.4
			c0-1.5-1.1-2.3-3.1-2.3h-2.9v4.6H67.2z"/>
		<path id="XMLID_12045_" class="st1" d="M85.9,53.1h-5.6L79,57h-3.4l5.6-16h3.9l5.6,16h-3.6L85.9,53.1z M81,50.6h4.2L83.1,44H83
			L81,50.6z"/>
		<path id="XMLID_12048_" class="st1" d="M93.4,57V41h2.8l7.5,10.4h0.1V41h3.2v16h-2.8l-7.5-10.5h-0.1V57H93.4z"/>
		<path id="XMLID_12050_" class="st1" d="M110.8,57V41h3.3v7.3h0.1l6-7.3h3.7l-5.9,7.1l6.3,8.9h-4l-4.7-6.7l-1.5,1.8V57H110.8z"/>
	</g>
	<path id="XMLID_12037_" class="st2" d="M82.5,115.1c-0.1,0-0.2,0-0.2,0c-1.3,0-2.6,0-3.9,0c-0.1,0-0.2,0-0.2-0.1
		c-1.3-1.4-2.6-2.8-3.9-4.3c0,0,0,0-0.1-0.1c2.8,0,5.5,0,8.3,0c0-0.1,0-0.1,0-0.2c0-2.9,0-5.8,0-8.7c0-0.8-0.2-1.6-0.8-2.2
		c-0.4-0.4-0.9-0.7-1.5-0.8c-0.7-0.2-1.4-0.2-2,0c-0.2,0.1-0.4,0.2-0.7,0.3c-0.1-0.2-0.2-0.4-0.3-0.7c-0.4-0.8-0.8-1.7-1.1-2.5
		c-0.2-0.4-0.1-0.9,0.2-1.3c0.3-0.5,0.7-0.8,1.2-1.1c0.9-0.5,1.9-0.9,2.9-1c1.9-0.2,3.4,0.4,4.6,2.1c1,1.4,1.5,2.9,1.8,4.6
		c0.1,0.8,0.2,1.6,0.2,2.4c0,2.9,0,5.9,0,8.8c0,0.1,0,0.1,0,0.2c0.1,0,0.1,0,0.2,0c0.7,0,1.4,0,2.2,0c0.1,0,0.2,0,0.2,0.1
		c1.3,1.4,2.7,2.9,4,4.3c0,0,0,0,0.1,0.1c-2.2,0-4.4,0-6.6,0c0,0.1,0,0.1,0,0.2c0,4.1,0,8.3,0,12.4c0,1.4,0.6,2.5,1.6,3.3
		c0.5,0.4,1.2,0.5,1.8,0.6c1.9,0.3,3.6-0.2,5.1-1.3c2-1.4,3.7-3.2,5-5.4c0.6-1.1,1.1-2.3,1.2-3.6c0-0.2,0.1-0.4,0.1-0.7
		c0,0,0,0,0-0.1c-0.2,0-0.4,0-0.7,0c-1.1,0.1-2.2,0-3.2-0.5c-1.2-0.5-2-1.4-2.4-2.6c-0.6-1.5-0.7-3.1-0.3-4.7c0.3-1.2,0.9-2.2,1.8-3
		c0.6-0.5,1.4-0.7,2.2-0.9c1.1-0.2,2.1-0.2,3.2,0.1c1.1,0.3,2.1,0.9,3,1.7c1.7,1.7,2.7,3.7,3,6.1c0.4,3,0,5.8-1.2,8.5
		c-0.9,2-2.1,3.8-3.5,5.5c-1,1.1-2,2.2-3.2,3.1c-1.7,1.3-3.6,2.2-5.6,2.6c-1.2,0.3-2.4,0.4-3.7,0.4c-1,0-2-0.3-2.9-0.8
		c-1.9-1-3.5-2.3-4.8-4.1c-0.4-0.6-0.7-1.2-0.9-1.9c0-0.1,0-0.2,0-0.3c0-4.8,0-9.5,0-14.3C82.5,115.3,82.5,115.2,82.5,115.1z"/>
</g>
</svg>
