<?xml version="1.0" encoding="utf-8"?>
<!-- Generator: Adobe Illustrator 19.0.0, SVG Export Plug-In . SVG Version: 6.00 Build 0)  -->
<svg version="1.1" id="Layer_1" xmlns="http://www.w3.org/2000/svg" xmlns:xlink="http://www.w3.org/1999/xlink" x="0px" y="0px"
	 viewBox="0 0 186 198.7" style="enable-background:new 0 0 186 198.7;" xml:space="preserve">
<style type="text/css">
	.st0{fill:#5D5E5E;}
</style>
<g id="XMLID_9936_">
	<path id="XMLID_12696_" class="st0" d="M169.7,185.7c-5.1,1.2-10.7,0.5-16.2,0.5c-9.4,0-18.9,0-28.3,0c-11.9,0-23.7,0.2-35.6,0.3
		c-6,0.1-12.1,0.1-18.1,0.2c-6.9,0-13.9,1.2-20.2-2.4c-5-2.9-6.2-7.6-6.2-13c0-13,0-25.9,0-38.9c0-0.7,0-1.3,0-2.2
		c-2.5,0.6-4.9,1.2-7.3,1.8c-6.9,1.6-13.3-2.3-15-9.2C18.4,104.9,14,87,9.6,69.1C8.1,63.1,5.7,56.9,6,50.5
		c0.3-6.3,4.5-10.2,10.3-11.9c8.2-2.4,16.7-4.2,25-6.3c18.2-4.6,36.5-9.2,54.7-13.8c2.4-0.6,4.7-1.2,7.1-1.8
		c4.2-1.1,8.2-2.6,12.4-3.7c8-2.1,15.8-2.2,20.2,5.7c3.2,5.8,3.7,12.7,5.3,19.1c3.4,13.7,6.8,27.4,10.2,41.1
		c0.9,3.8,1.9,7.5,2.8,11.3c4.8,0,9.4,0,14,0c5.3,0.1,9.9,3.5,11.5,8.5c0.2,0.7,0.4,1.4,0.7,2.1c0,24.9,0,49.8,0,74.7
		c-0.8,2.8-1.8,5.6-4.2,7.4C173.9,184.3,171.9,185.2,169.7,185.7z M146.3,90.3c-0.1-0.5-0.1-0.9-0.2-1.3
		c-5.4-21.7-10.7-43.4-16.1-65.1c-1.1-4.4-3.3-5.7-7.6-4.6C87.5,28.1,52.7,36.9,17.8,45.8c-4.3,1.1-5.6,3.4-4.6,7.7
		c3.7,15,7.4,30,11.1,44.9c1.8,7.4,3.6,14.8,5.5,22.1c0.7,2.9,2.7,4.9,5.1,4.5c3.4-0.5,6.8-1.5,10.2-2.3c0-6.5,0.1-12.7,0-18.9
		c-0.2-8.5,6.3-13.7,13.5-13.6c23.6,0.2,47.2,0.1,70.7,0.1C134.9,90.3,140.6,90.3,146.3,90.3z M52.7,141.9c-0.1,0.2-0.2,0.3-0.2,0.4
		c0,10.6-0.1,21.1,0.1,31.7c0,1.2,0.9,2.9,1.9,3.6c1.2,0.8,2.9,1.2,4.4,1.2c36,0.1,71.9,0,107.9,0c4.1,0,6.1-2,6.1-6.1
		c0-9.8,0-19.5,0-29.3c0-0.5-0.1-1-0.1-1.6C132.7,141.9,92.7,141.9,52.7,141.9z M52.6,134.5c40.2,0,80.1,0,120.1,0
		c0-5.3,0-10.4,0-15.6c-40.1,0-80.1,0-120.1,0C52.6,124.1,52.6,129.2,52.6,134.5z M172.8,111.4c0-2.5,0-4.9,0-7.3
		c0-4.9-1.8-6.6-6.7-6.6c-28.1,0-56.2,0-84.3,0c-7.9,0-15.8,0-23.7,0c-3,0-5.3,1.7-5.5,4.3c-0.2,3.1,0,6.3,0,9.6
		C92.6,111.4,132.6,111.4,172.8,111.4z"/>
	<path id="XMLID_12669_" class="st0" d="M144.3,165.5c-2.9,0-5.9,0-8.8,0c-2.7,0-4.4-1.5-4.3-3.7c0-2.2,1.7-3.6,4.3-3.6
		c6,0,11.9,0,17.9,0c1.6,0,2.9,0.6,3.6,2.1c0.6,1.3,0.6,2.7-0.4,3.6c-0.8,0.8-2.1,1.4-3.2,1.5C150.3,165.6,147.3,165.5,144.3,165.5z
		"/>
	<g id="XMLID_9937_">
		<path id="XMLID_9938_" class="st0" d="M62.2,57.2c-1.4-5.2,0.7-9.2,5.4-10.5c3.9-1.1,7.5,0.6,8.8,4.2l-3.3,0.9
			c-0.9-1.9-2.7-2.8-4.7-2.3c-2.6,0.7-3.6,3.3-2.7,6.7c0.9,3.5,3.1,5.2,5.7,4.5c2-0.5,3.1-2.1,3-4.1l3.3-0.9
			c0.6,3.7-1.6,6.8-5.5,7.9C67.4,64.8,63.6,62.5,62.2,57.2z"/>
		<path id="XMLID_9940_" class="st0" d="M90.2,54.1l-5.7,1.5l-0.2,4.3l-3.5,0.9l1.2-17.8l4-1.1l10,14.7l-3.6,1L90.2,54.1z
			 M84.6,52.9l4.2-1.1l-3.9-6.1l-0.1,0L84.6,52.9z"/>
		<path id="XMLID_11106_" class="st0" d="M102.3,55.1L98.9,56l-4.4-16.2l6.7-1.8c3.7-1,6.4,0.4,7.3,3.6c0.6,2.1,0,4.2-1.7,5.4
			l5.2,5.5l-3.8,1l-4.6-5.1l-2.8,0.8L102.3,55.1z M100.1,46.7l3-0.8c1.7-0.5,2.4-1.7,2-3.3c-0.4-1.6-1.8-2.3-3.4-1.8l-2.9,0.8
			L100.1,46.7z"/>
		<path id="XMLID_12056_" class="st0" d="M116.7,33.7c4.9-1.3,8.5,0.8,9.9,6c1.4,5.2-0.7,9-5.5,10.3l-6.3,1.7l-4.4-16.2L116.7,33.7z
			 M117.5,47.9l2.5-0.7c3-0.8,4.2-3.1,3.2-6.6c-0.9-3.4-3.1-4.8-6.1-4l-2.5,0.7L117.5,47.9z"/>
	</g>
</g>
</svg>
