<?xml version="1.0" encoding="utf-8"?>
<!-- Generator: Adobe Illustrator 19.0.0, SVG Export Plug-In . SVG Version: 6.00 Build 0)  -->
<svg version="1.1" id="Layer_1" xmlns="http://www.w3.org/2000/svg" xmlns:xlink="http://www.w3.org/1999/xlink" x="0px" y="0px"
	 viewBox="0 0 186 198.7" style="enable-background:new 0 0 186 198.7;" xml:space="preserve">
<style type="text/css">
	.st0{fill:#5D5E5E;}
</style>
<g id="XMLID_10299_">
	<g id="XMLID_10447_">
		<polygon id="XMLID_10267_" class="st0" points="42.8,40.3 42.8,21.3 138.8,21.3 138.8,65.9 148.4,69.2 148.4,7.8 32.7,7.8 
			32.7,46 		"/>
		<path id="XMLID_10266_" class="st0" d="M41.3,104.4L30,87.1c0,0,11.6-37.6,51.7-31.4c0,0-35.9-14.1-62.2,16.7l-10.7-15L7.3,98.1
			L41.3,104.4z"/>
		<path id="XMLID_10265_" class="st0" d="M145,82.4l10.6,17.7c0,0-13,37.1-52.8,29.4c0,0,35.3,15.5,62.8-14.3l10.1,15.4l2.9-40.6
			L145,82.4z"/>
		<g id="XMLID_10634_">
			<path id="XMLID_10637_" class="st0" d="M74.9,113.8c3.7,2.3,9.2,4.2,14.8,4.2c8.4,0,13.4-4.5,13.4-10.9c0-6-3.4-9.4-12-12.7
				c-10.5-3.7-16.9-9.1-16.9-18.2c0-9.9,8.3-17.4,20.7-17.4c6.5,0,11.3,1.5,14.1,3.1l-2.3,6.7c-2.1-1.1-6.4-3-12.2-3
				c-8.7,0-12,5.2-12,9.6c0,6,3.9,8.9,12.6,12.3c10.9,4.2,16.4,9.4,16.4,18.9c0,9.9-7.3,18.4-22.5,18.4c-6.1,0-12.9-1.8-16.3-4
				L74.9,113.8z"/>
		</g>
		<rect id="XMLID_9968_" x="86.6" y="48.7" class="st0" width="9.1" height="11"/>
		<rect id="XMLID_9916_" x="86.6" y="123.8" class="st0" width="9.1" height="11"/>
		<path id="XMLID_10458_" class="st0" d="M138.8,145.2v20.3H42.8v-46.6l-10-3.8v75.8h115.7v-49.3L138.8,145.2z M113.9,182.3H66.7
			v-7.6h47.2V182.3z"/>
	</g>
</g>
</svg>
