<?xml version="1.0" encoding="utf-8"?>
<!-- Generator: Adobe Illustrator 19.0.0, SVG Export Plug-In . SVG Version: 6.00 Build 0)  -->
<svg version="1.1" id="Layer_1" xmlns="http://www.w3.org/2000/svg" xmlns:xlink="http://www.w3.org/1999/xlink" x="0px" y="0px"
	 viewBox="0 0 186 198.7" style="enable-background:new 0 0 186 198.7;" xml:space="preserve">
<style type="text/css">
	.st0{fill:#5D5E5E;}
</style>
<g id="XMLID_6886_">
	<g id="XMLID_298_">
		<polygon id="XMLID_326_" class="st0" points="25.8,32.1 52.2,32.1 52.2,58.5 25.8,58.5 25.8,32.1 		"/>
		<polygon id="XMLID_325_" class="st0" points="25.8,140.1 52.2,140.1 52.2,166.5 25.8,166.5 25.8,140.1 		"/>
		<polygon id="XMLID_324_" class="st0" points="133.8,32.1 160.2,32.1 160.2,58.5 133.8,58.5 133.8,32.1 		"/>
		<path id="XMLID_321_" class="st0" d="M68.9,14.5H9.1c-0.5,0-0.9,0.4-0.9,0.9v59.7c0,0.6,0.4,1,0.9,1h59.8c0.6,0,1-0.4,1-1V15.4
			C69.9,14.9,69.5,14.5,68.9,14.5z M60.2,66.5H17.8V24.1h42.3V66.5z"/>
		<path id="XMLID_318_" class="st0" d="M68.9,122.4H9.1c-0.5,0-0.9,0.4-0.9,0.9v59.8c0,0.6,0.4,1,0.9,1h59.8c0.6,0,1-0.4,1-1v-59.8
			C69.9,122.8,69.5,122.4,68.9,122.4z M60.2,174.4H17.8v-42.3h42.3V174.4z"/>
		<path id="XMLID_315_" class="st0" d="M176.9,14.5h-59.8c-0.5,0-0.9,0.4-0.9,0.9v59.7c0,0.6,0.4,1,0.9,1h59.8c0.5,0,0.9-0.4,0.9-1
			V15.4C177.8,14.9,177.4,14.5,176.9,14.5z M168.1,66.5h-42.3V24.1h42.3V66.5z"/>
		<path id="XMLID_312_" class="st0" d="M176.9,122.4h-59.8c-0.5,0-0.9,0.4-0.9,0.9v59.8c0,0.6,0.4,1,0.9,1h59.8c0.5,0,0.9-0.4,0.9-1
			v-59.8C177.8,122.8,177.4,122.4,176.9,122.4z M168.1,174.4h-42.3v-42.3h42.3V174.4z"/>
		<polygon id="XMLID_311_" class="st0" points="133.8,140.1 160.2,140.1 160.2,166.5 133.8,166.5 133.8,140.1 		"/>
		<polygon id="XMLID_310_" class="st0" points="80.4,14.5 88.1,14.5 88.1,30.9 80.4,30.9 80.4,14.5 		"/>
		<polygon id="XMLID_309_" class="st0" points="100.5,50.3 100.5,46.1 94.7,46.1 94.7,43.3 99.8,43.3 99.8,33.3 105.3,33.3 
			105.3,22.7 97.6,22.7 97.6,26.9 92.1,26.9 92.1,37.9 87,37.9 87,42.2 81.5,42.2 81.5,58.6 89.1,58.6 89.1,48.5 92.8,48.5 
			92.8,56.7 100.3,56.7 100.3,66.7 108,66.7 108,50.3 100.5,50.3 		"/>
		<polygon id="XMLID_308_" class="st0" points="8.5,84.9 18.5,84.9 18.5,103.4 8.5,103.4 8.5,84.9 		"/>
		<polygon id="XMLID_307_" class="st0" points="41.7,104.9 63.1,104.9 63.1,113.6 41.7,113.6 41.7,104.9 		"/>
		<polygon id="XMLID_306_" class="st0" points="66.2,87.2 52.4,87.2 52.4,91.5 32.2,91.5 32.2,100.1 53.5,100.1 53.5,95.8 
			60.3,95.8 60.3,103.4 74.1,103.4 74.1,94.8 66.2,94.8 66.2,87.2 		"/>
		<polygon id="XMLID_305_" class="st0" points="140.5,97.5 129.8,97.5 129.8,89.8 116.1,89.8 116.1,94.8 107.4,94.8 107.4,101.8 
			97.6,101.8 97.6,110.4 111.3,110.4 111.3,103.4 121.2,103.4 121.2,98.5 126.7,98.5 126.7,106.1 138.9,106.1 138.9,112 152.6,112 
			152.6,103.4 140.5,103.4 140.5,97.5 		"/>
		<polygon id="XMLID_304_" class="st0" points="147.7,91.9 161.5,91.9 161.5,100.5 147.7,100.5 147.7,91.9 		"/>
		<polygon id="XMLID_303_" class="st0" points="163.7,86.2 177.4,86.2 177.4,94.8 163.7,94.8 163.7,86.2 		"/>
		<polygon id="XMLID_302_" class="st0" points="79.2,93.2 93,93.2 93,101.8 79.2,101.8 79.2,93.2 		"/>
		<polygon id="XMLID_301_" class="st0" points="19.2,105.1 33,105.1 33,113.7 19.2,113.7 19.2,105.1 		"/>
		<polygon id="XMLID_300_" class="st0" points="99.2,167.6 106.9,167.6 106.9,184.2 99.2,184.2 99.2,167.6 		"/>
		<polygon id="XMLID_299_" class="st0" points="100.3,156.3 105.8,156.3 105.8,139.8 98.1,139.8 98.1,149.9 94.4,149.9 94.4,141.7 
			86.8,141.7 86.8,133.7 87.1,133.7 87.1,125.1 75.2,125.1 75.2,133.7 79.1,133.7 79.1,148.1 86.7,148.1 86.7,152.4 92.6,152.4 
			92.6,155.1 87.4,155.1 87.4,171.6 95.1,171.6 95.1,160.6 100.3,160.6 100.3,156.3 		"/>
	</g>
</g>
</svg>
