<?xml version="1.0" encoding="iso-8859-1"?>
<!-- Generator: Adobe Illustrator 21.0.0, SVG Export Plug-In . SVG Version: 6.00 Build 0)  -->
<svg xmlns="http://www.w3.org/2000/svg" xmlns:xlink="http://www.w3.org/1999/xlink" version="1.1" id="Capa_1" x="0px" y="0px" viewBox="0 0 513.243 513.243" style="enable-background:new 0 0 513.243 513.243;" xml:space="preserve" width="512" height="512">
<g>
	<path fill="#fff" d="M294.584,80.071h-99c-9.673,0-9.673,15,0,15h91.5v83.208H131.755V95.071h28.829c9.673,0,9.673-15,0-15h-36.329   c-4.142,0-7.5,3.357-7.5,7.5v98.208c0,4.143,3.358,7.5,7.5,7.5h170.329c4.143,0,7.5-3.357,7.5-7.5V87.571   C302.084,83.429,298.727,80.071,294.584,80.071z"/>
	<path fill="#fff" d="M511.877,267.63c-0.843-1.802-2.367-3.194-4.237-3.872l-25.902-9.389l8.042-22.184c3.56-9.819,2.573-20.195-1.868-28.822   c2.803-7.731,5.605-15.462,8.408-23.194c1.816-5.008,3.165-9.965,2.274-15.379c-1.432-8.699-7.569-16.097-15.852-19.1   c-12.706-4.609-26.795,1.985-31.401,14.692l-9.516,26.25c-0.426,0.18-0.852,0.361-1.273,0.559   c-8.732,4.086-15.352,11.327-18.637,20.392l-10.596,29.231c0,0.001-0.001,0.002-0.001,0.003s-0.001,0.002-0.001,0.003   l-5.748,15.856c-3.39-2.81-7.739-4.502-12.476-4.502h-11.793v-10.658h11.041c11.213,0,20.335-9.122,20.335-20.335v-50.4   c0-11.224-9.131-20.354-20.354-20.354h-11.021V135.77h10.987c11.242,0,20.389-9.146,20.389-20.389V65.024   c0-11.218-9.126-20.344-20.344-20.344h-11.556C377.212,19.464,355.498,0,329.313,0H46.319c-9.856,0-17.875,8.019-17.875,17.875   v63.104H7.913c-9.673,0-9.673,15,0,15h20.53v77.59H7.913c-9.673,0-9.673,15,0,15h20.53v77.59H7.913c-9.673,0-9.673,15,0,15h20.53   v77.591H7.913c-9.673,0-9.673,15,0,15h20.53v57.6c0,12.892,10.488,23.379,23.379,23.379h30.262V504.5   c0,5.498,6.032,9.197,10.935,6.667l28.914-14.896l26.995,14.805c4.912,2.692,11.106-0.991,11.106-6.576v-49.772h169.279   c3.294,0,6.547-0.306,9.738-0.911c2.197,9.033,7.838,17.089,15.985,22.161l-9.92,27.367c-3.301,9.101,10.801,14.221,14.102,5.111   l9.917-27.359c16.698,2.36,33.186-7.642,38.917-23.454l11.771-32.47c3.298-9.093-10.806-14.205-14.102-5.111l-11.771,32.47   c-3.965,10.934-16.084,16.604-27.021,12.643c-10.771-3.905-16.552-16.234-12.642-27.021l68.575-189.173l39.662,14.378   L418.77,384.062c-3.298,9.092,10.806,14.208,14.102,5.111l43.755-120.703l18.851,6.833l-27.047,74.614   c-3.301,9.101,10.801,14.221,14.102,5.111l29.604-81.665C512.813,271.494,512.72,269.432,511.877,267.63z M381.709,161.428h10.611   c2.952,0,5.354,2.402,5.354,5.354v50.4c0,2.941-2.394,5.335-5.335,5.335h-10.631V161.428z M145.034,491.833l-19.385-10.631   c-2.186-1.197-4.825-1.232-7.041-0.091l-21.524,11.088v-35.282h47.95V491.833z M477.63,159.793c2.39,0.866,4.299,2.611,5.376,4.913   s1.193,4.886,0.327,7.275l-6.677,18.418c-2.569-1.814-5.412-3.326-8.509-4.448c-3.065-1.111-6.215-1.786-9.379-2.048l6.673-18.407   C467.23,160.563,472.699,158.007,477.63,159.793z M393.092,263.176c2.527,0,4.583,2.056,4.583,4.583v6.692l-15.966,44.044v-55.319   H393.092z M381.709,59.681h10.622c2.946,0,5.344,2.397,5.344,5.344v50.356c0,2.972-2.417,5.389-5.389,5.389h-10.577V59.681z    M340.186,433.042c-0.657,1.813-1.156,3.645-1.51,5.482c-3.039,0.793-6.171,1.204-9.363,1.204H51.823   c-4.62,0-8.379-3.759-8.379-8.379v-57.6h20.53c4.142,0,7.5-3.357,7.5-7.5s-3.358-7.5-7.5-7.5h-20.53v-77.591h20.53   c4.142,0,7.5-3.357,7.5-7.5s-3.358-7.5-7.5-7.5h-20.53v-77.59h20.53c4.142,0,7.5-3.357,7.5-7.5s-3.358-7.5-7.5-7.5h-20.53v-77.59   h20.53c4.142,0,7.5-3.357,7.5-7.5s-3.358-7.5-7.5-7.5h-20.53V17.875c0-1.585,1.29-2.875,2.875-2.875h282.994   c20.395,0,36.986,16.592,36.986,36.986v309.019L340.186,433.042z M427.974,234.879l8.042-22.184   c3.965-10.936,16.08-16.61,27.021-12.643c10.935,3.964,16.605,16.085,12.642,27.021l-8.042,22.184L427.974,234.879z"/>
</g>















</svg>
