<?xml version="1.0" encoding="utf-8"?>
<!-- Generator: Adobe Illustrator 19.0.0, SVG Export Plug-In . SVG Version: 6.00 Build 0)  -->
<svg version="1.1" xmlns="http://www.w3.org/2000/svg" xmlns:xlink="http://www.w3.org/1999/xlink" x="0px" y="0px"
	 viewBox="0 0 1064 596" style="enable-background:new 0 0 1064 596;" xml:space="preserve">
<style type="text/css">
	.st0{display:none;fill:none;stroke:#A3A3A3;stroke-width:2;stroke-linecap:square;stroke-linejoin:round;stroke-miterlimit:10;}
	
		.st1{display:none;fill:none;stroke:#A3A3A3;stroke-width:2.4949;stroke-linecap:square;stroke-linejoin:round;stroke-miterlimit:10;stroke-dasharray:1.2474,4.9897;}
	.st2{fill:none;stroke:#A3A3A3;stroke-width:2;stroke-linecap:square;stroke-linejoin:round;stroke-miterlimit:10;}
	.st3{fill:none;stroke:#A3A3A3;stroke-width:2.4949;stroke-miterlimit:10;}
	.st4{fill:#A3A3A3;}
</style>
<g id="BACKGROUND">
</g>
<g id="OBJECTS">
</g>
<g id="DESIGNED_BY_FREEPIK">
	<line class="st0" x1="731.2" y1="205.8" x2="358.1" y2="398.1"/>
	<line class="st0" x1="685.4" y1="188.1" x2="351.3" y2="358.2"/>
	<line class="st1" x1="106.7" y1="267" x2="590.9" y2="36"/>
	<line class="st1" x1="1009.8" y1="277.6" x2="537" y2="504"/>
	<g>
		<path class="st2" d="M716.3,214.8l116.4-59.6c4.9-2.5,12.8-2.3,17.6,0.4L1032,257.9c4.8,2.7,4.6,6.8-0.4,9.1l-18.6,8.6"/>
	</g>
	<g>
		<path class="st2" d="M590.9,36c0,0,3.7-1.8,8.2-3.9s12.2-1.9,17.1,0.6l179.8,90.4c4.9,2.5,4.9,6.5,0,9l-121.3,61.4"/>
	</g>
	<g>
		<path class="st2" d="M479.2,533.3L459,543c-5,2.4-12.9,2-17.6-0.7l-161.5-94.7c-4.7-2.8-4.6-7.1,0.3-9.6l152-78
			c4.9-2.5,8.1-9,7.1-14.4l-3.6-20.2"/>
	</g>
	<g>
		<path class="st2" d="M48.9,296.3l-11.8,6c-4.9,2.5-5,6.8-0.2,9.5l181.3,103.3c4.8,2.7,12.7,2.9,17.6,0.5L390,338.5
			c4.9-2.5,8.2-8.9,7.3-14.3l-3.1-19.1"/>
	</g>
	<g id="XMLID_1_">
		<ellipse id="XMLID_42_" class="st3" cx="59.9" cy="293.4" rx="11.9" ry="7.4"/>
		<ellipse id="XMLID_41_" class="st4" cx="59.9" cy="293.4" rx="5.1" ry="3.2"/>
	</g>
	<g id="XMLID_54_">
		<ellipse id="XMLID_56_" class="st3" cx="581.5" cy="41.7" rx="11.9" ry="7.4"/>
		<ellipse id="XMLID_55_" class="st4" cx="581.5" cy="41.7" rx="5.1" ry="3.2"/>
	</g>
	<g id="XMLID_50_">
		<ellipse id="XMLID_53_" class="st3" cx="1001.7" cy="280.1" rx="11.9" ry="7.4"/>
		<ellipse id="XMLID_52_" class="st4" cx="1001.7" cy="280.1" rx="5.1" ry="3.2"/>
	</g>
	<g id="XMLID_45_">
		<ellipse id="XMLID_48_" class="st3" cx="488.1" cy="527.7" rx="11.9" ry="7.4"/>
		<ellipse id="XMLID_46_" class="st4" cx="488.1" cy="527.7" rx="5.1" ry="3.2"/>
	</g>
</g>
</svg>
